<?xml version="1.0" encoding="UTF-8"?>
<svg width="200px" height="35px" viewBox="0 0 200 35" version="1.1" xmlns="http://www.w3.org/2000/svg" xmlns:xlink="http://www.w3.org/1999/xlink">
    <g id="Page-1" stroke="none" stroke-width="1" fill="none" fill-rule="evenodd" opacity="0.998">
        <path d="M7.962512,3.87725117 L7.962512,25.6570655 C7.96234999,26.6196117 7.57979673,27.5426642 6.89902103,28.2231343 C6.21824533,28.9036045 5.29502121,29.2854734 4.33247505,29.2854734 C2.3284154,29.2854734 0.703681347,27.6611252 0.703456402,25.6570655 L0.703456402,3.87725117 C0.703456402,2.91475902 1.08572697,1.99167254 1.7663117,1.31108782 C2.44689642,0.630503093 3.3699829,0.24823243 4.33247505,0.24823243 C5.29511051,0.24823243 6.21839583,0.630256485 6.89917738,1.31084707 C7.57995894,1.99143765 7.962512,2.91461569 7.962512,3.87725117 Z M26.1118821,29.2862879 C24.1071805,29.2862879 22.4820488,27.6611561 22.4820488,25.6564546 C22.4820488,23.651753 24.1071805,22.0266213 26.1118821,22.0266213 C28.1165837,22.0266213 29.7417154,23.651753 29.7417154,25.6564546 C29.7417154,27.6611561 28.1165837,29.2862879 26.1118821,29.2862879 Z M18.8526229,14.767362 L18.8526229,25.6572692 C18.8520605,27.6619242 17.22663,29.2866253 15.2219749,29.2862879 C13.2174789,29.2862879 11.5922966,27.6617651 11.5917343,25.6572692 L11.5917343,14.767362 C11.5920716,12.7625423 13.2171552,11.1373675 15.2219749,11.1369178 C17.2269072,11.137255 18.8521731,12.7624298 18.8526229,14.767362 Z M51.9247767,14.6808065 L51.9239621,14.6808065 C55.0802857,14.6808065 57.1559891,16.927177 57.1559891,20.3392977 L57.1559891,27.4480521 C57.1559891,28.5854936 56.3596782,29.4101132 55.2507492,29.4101132 C54.7352328,29.4113204 54.2413366,29.203082 53.882304,28.8331439 C53.5232714,28.4632059 53.3299001,27.9633017 53.3465276,27.4480521 L53.3465276,20.8796078 C53.3465276,19.2311833 52.2944197,18.150563 50.7305141,18.150563 C49.1666085,18.150563 48.0576794,19.258881 48.0576794,20.8796078 L48.0576794,27.4484595 C48.0791299,27.9652148 47.8872042,28.4680653 47.5269006,28.8391146 C47.1665969,29.2101638 46.6696021,29.4167799 46.1524396,29.4107189 C45.6323844,29.4180169 45.1318341,29.2127595 44.7667629,28.8423049 C44.4016917,28.4718503 44.203783,27.9683492 44.2188909,27.4484595 L44.2188909,9.36344593 C44.203783,8.84355621 44.4016917,8.34005509 44.7667629,7.96960051 C45.1318341,7.59914593 45.6323844,7.39388844 46.1524396,7.40118652 C46.6696021,7.3951255 47.1665969,7.60174162 47.5269006,7.97279084 C47.8872042,8.34384005 48.0791299,8.84669055 48.0576794,9.36344593 L48.0576794,16.2161997 C49.0874606,15.2046893 50.4816124,14.651155 51.9247767,14.6808065 Z M73.1078671,14.6808065 L73.1086817,14.6812138 C74.1218553,14.6992561 74.9388545,15.5162554 74.956943,16.5294289 C74.9591261,16.8380403 74.8807085,17.1418821 74.7294085,17.4108696 L68.5306072,30.1223124 C67.0235227,33.2216112 65.3174624,34.5297198 62.7582701,34.5297198 C62.2019475,34.541671 61.6494562,34.4350328 61.1375433,34.216898 C60.5424035,33.9536498 60.1619156,33.3605151 60.170769,32.7098135 C60.1759286,32.2590269 60.3631192,31.8294746 60.6897911,31.5187969 C61.016463,31.2081191 61.4548638,31.0427096 61.9053417,31.060167 C62.0474964,31.060167 62.1611388,31.0886794 62.2464723,31.0886794 C63.4690437,31.0886794 64.2936633,30.576067 64.919307,29.2964709 L65.4311047,28.1590294 L60.5687207,17.4387711 C60.4124855,17.1600251 60.3247406,16.8481364 60.31272,16.5288179 C60.3341166,15.5059794 61.1664013,14.6863393 62.1894475,14.6806028 C62.917664,14.661672 63.583261,15.0903753 63.8671991,15.7612231 L67.592549,24.0927526 L71.4018068,15.7614268 C71.7017366,15.0911689 72.3737212,14.6655332 73.1078671,14.6808065 Z M86.217058,14.6812138 L86.217058,14.6810102 C90.1698961,14.6810102 93.041503,17.7522039 93.041503,22.0172529 C93.041503,26.2823019 90.1694888,29.4101132 86.217058,29.4101132 C84.4539728,29.4101132 82.9754008,28.7846731 82.0086265,27.7040528 L82.0086265,32.5947456 C82.0157387,33.2851902 81.6514677,33.9262526 81.0546822,34.2735444 C80.4578968,34.6208362 79.7205676,34.6208362 79.1237822,34.2735444 C78.5269967,33.9262526 78.1627257,33.2851902 78.1698379,32.5947456 L78.1698379,16.5587559 C78.1601691,16.0505525 78.3577927,15.5603091 78.7172119,15.20089 C79.076631,14.8414708 79.5668744,14.6438472 80.0750778,14.653516 C81.0986733,14.653516 81.8664717,15.4213145 81.9232929,16.4734224 C82.8900672,15.3351663 84.3971517,14.6812138 86.217058,14.6812138 Z M85.5062844,25.9128626 C87.6105001,25.9128626 89.1458933,24.2921358 89.1458933,22.0457653 C89.1458933,19.7708824 87.6390125,18.1501557 85.5062844,18.1501557 C83.3735562,18.1501557 81.9518053,19.7140613 81.9518053,22.0172529 C81.9518053,24.3204446 83.4020686,25.9128626 85.5062844,25.9128626 Z M103.277865,14.6808065 L103.278069,14.6818248 C107.116857,14.6818248 109.960359,17.4685054 109.960359,21.2787815 L109.960359,21.3641151 C109.960359,22.5583777 109.107227,23.3261761 107.856143,23.3261761 L99.8382503,23.3261761 C100.293227,25.0892613 101.714978,26.1128568 103.790681,26.1128568 C104.824675,26.115892 105.838998,25.8303072 106.719516,25.2882372 C106.964658,25.1266557 107.250587,25.0378895 107.544136,25.0322365 C107.957641,25.0197779 108.358325,25.176591 108.653529,25.4664126 C108.948732,25.7562343 109.112891,26.1539653 109.108042,26.5676297 C109.108042,27.1930697 108.823732,27.6480463 108.141267,28.1030229 C106.815509,28.9721306 105.26117,29.4271958 103.67602,29.4103168 C99.2401007,29.4103168 95.9701347,26.2539932 95.9701347,22.0455617 C95.9701347,17.8654389 99.1262547,14.6808065 103.277865,14.6808065 Z M103.192328,17.7801053 L103.192531,17.7801053 C101.514984,17.7801053 100.263696,18.8890344 99.837232,20.6236071 L106.234806,20.6236071 C106.177984,18.9458555 104.984536,17.7801053 103.192328,17.7801053 Z M120.849655,14.8229612 L120.851285,14.8229612 C121.875084,14.8229612 122.585857,15.5054261 122.585857,16.557534 C122.585857,17.5811294 121.874269,18.2921067 120.793649,18.405749 C118.745439,18.5479038 117.494356,19.8843211 117.494356,22.045358 L117.494356,27.4490704 C117.515806,27.9658258 117.32388,28.4686763 116.963577,28.8397255 C116.603273,29.2107747 116.106278,29.4173909 115.589116,29.4111315 C115.069061,29.4186279 114.56851,29.2133704 114.203439,28.8429159 C113.838368,28.4724613 113.640459,27.9689602 113.655567,27.4490704 L113.655567,16.6143551 C113.63998,16.1018588 113.834757,15.6053001 114.194631,15.2400792 C114.554504,14.8748584 115.048137,14.6727798 115.560807,14.6808065 C116.540176,14.6753751 117.352376,15.4376351 117.409022,16.4153792 C118.272341,15.4129042 119.526709,14.832349 120.849655,14.8229612 Z M130.831646,14.6803992 L130.830424,14.6806028 C134.697725,14.6806028 136.915583,16.8701522 136.915583,20.7089407 L136.915583,27.4759536 C136.938077,27.9778765 136.752513,28.4668468 136.402682,28.827472 C136.05285,29.1880973 135.569742,29.3884299 135.067368,29.3811934 C134.17456,29.4008443 133.395963,28.7779667 133.219153,27.9026214 C132.195557,28.8693957 130.773806,29.4097059 129.096055,29.4097059 C126.195732,29.4097059 124.233671,27.7036455 124.233671,25.2012743 C124.233671,22.6705944 126.251738,21.1066888 129.551031,21.1066888 L133.078627,21.1066888 L133.078627,20.4810451 C133.078627,18.9171394 132.140162,18.0071863 130.434101,18.0071863 C129.433789,18.0078597 128.470017,18.3832254 127.732754,19.0592942 C127.277778,19.4006284 126.964956,19.5142708 126.595313,19.5142708 C126.168452,19.5282441 125.753765,19.3707329 125.44382,19.0768971 C125.133875,18.7830613 124.954475,18.377364 124.945666,17.9503651 C124.945666,17.4102586 125.229976,16.8984609 125.741774,16.4149719 C126.936036,15.3060429 128.784251,14.6803992 130.831646,14.6803992 Z M130.119447,26.5947165 C131.797198,26.5947165 133.076794,25.4004539 133.076794,23.8080358 L133.076794,23.6373687 L130.062625,23.6373687 C128.783029,23.6373687 128.100564,24.120654 128.100564,25.0591196 C128.100564,25.9975852 128.868363,26.5947165 130.119447,26.5947165 Z M147.692051,29.4101132 C143.853263,29.4101132 141.180326,26.7370749 141.180326,22.8699776 L141.180326,16.6143551 C141.173316,15.9239105 141.537587,15.2828481 142.134372,14.9355563 C142.731158,14.5882645 143.468487,14.5882645 144.065273,14.9355563 C144.662058,15.2828481 145.026329,15.9239105 145.019217,16.6143551 L145.019217,23.1827995 C145.019217,24.7467051 146.128146,25.8841465 147.692051,25.8841465 C149.227445,25.8841465 150.308065,24.7467051 150.308065,23.1827995 L150.308065,16.6143551 C150.300953,15.9239105 150.665224,15.2828481 151.262009,14.9355563 C151.858795,14.5882645 152.596124,14.5882645 153.192909,14.9355563 C153.789695,15.2828481 154.153966,15.9239105 154.146956,16.6143551 L154.146956,22.8699776 C154.146956,26.7372785 151.473815,29.4101132 147.692051,29.4101132 Z M170.69627,7.40118652 C171.213433,7.3951255 171.710427,7.60174162 172.070731,7.97279084 C172.431035,8.34384005 172.62296,8.84669055 172.60151,9.36344593 L172.60151,27.4765645 C172.623632,27.9859354 172.434933,28.4819221 172.079829,28.8477768 C171.724726,29.2136315 171.234587,29.4170365 170.724783,29.4102843 C169.724507,29.4010027 168.903217,28.6166993 168.848055,27.6179046 C167.881281,28.7561607 166.374196,29.4102843 164.55429,29.4102843 C160.601452,29.4102843 157.729845,26.3106107 157.729845,22.045358 C157.729845,17.7801053 160.601859,14.6806028 164.55429,14.6806028 C166.317375,14.6806028 167.795947,15.3062465 168.762721,16.3583544 L168.762721,9.36344593 C168.747614,8.84355621 168.945522,8.34005509 169.310593,7.96960051 C169.675665,7.59914593 170.176215,7.39388844 170.69627,7.40118652 Z M165.265267,25.9126589 C167.397995,25.9126589 168.819746,24.3487533 168.819746,22.0455617 C168.819746,19.74237 167.369483,18.149952 165.265267,18.149952 C163.161051,18.149952 161.625658,19.7991912 161.625658,22.0170493 C161.625658,24.2919322 163.132743,25.9126589 165.265267,25.9126589 Z M179.055701,7.54353961 C180.356385,7.53474837 181.421705,8.57472523 181.444226,9.87524366 C181.444226,11.1548398 180.335297,12.1784353 179.055701,12.1784353 C178.42953,12.1946162 177.822684,11.9608164 177.369233,11.5286889 C176.915782,11.0965613 176.653046,10.5016716 176.639071,9.87544732 C176.647061,9.24469922 176.906967,8.64334136 177.360895,8.20532723 C177.814823,7.76731311 178.425069,7.52902414 179.055701,7.54353961 Z M179.027189,29.4101132 C178.511496,29.4115971 178.017334,29.2034802 177.658079,28.833511 C177.298824,28.4635418 177.105315,27.9634788 177.121949,27.4480521 L177.121949,16.6133368 C177.114837,15.9228922 177.479108,15.2818298 178.075893,14.934538 C178.672678,14.5872462 179.410008,14.5872462 180.006793,14.934538 C180.603578,15.2818298 180.967849,15.9228922 180.960737,16.6133368 L180.960737,27.4480521 C180.975845,27.9679419 180.777936,28.471443 180.412865,28.8418976 C180.047794,29.2123521 179.547244,29.4176096 179.027189,29.4101132 Z M192.221509,14.6808065 C196.429737,14.6808065 199.78524,17.92226 199.78524,22.0170493 C199.78524,26.1118385 196.429126,29.3818044 192.192997,29.3818044 C187.98538,29.3818044 184.686087,26.1401472 184.686087,22.0170493 C184.686087,17.8939513 187.98538,14.6808065 192.221509,14.6808065 Z M192.221509,18.1782607 C190.117294,18.1782607 188.5819,19.7989875 188.5819,22.045358 C188.5819,24.2632161 190.117294,25.8556341 192.221509,25.8556341 C194.297213,25.8556341 195.861118,24.2349073 195.861118,22.045358 C195.861118,19.8279072 194.297213,18.1782607 192.221509,18.1782607 Z" id="hyperaudio-logo" fill="#f8f8f8" fill-rule="nonzero"></path>
    </g>
</svg>