<?xml version="1.0" encoding="UTF-8"?>
<svg width="24px" height="24px" viewBox="0 0 24 24" version="1.1" xmlns="http://www.w3.org/2000/svg" xmlns:xlink="http://www.w3.org/1999/xlink">
    <title>HaIcon</title>
    <g id="HaIcon" stroke="none" stroke-width="1" fill="none" fill-rule="evenodd">
        <path d="M19.8744729,17.2495259 C21.3241505,17.2495259 22.4993463,18.4247217 22.4993463,19.8743993 C22.4993463,21.3240768 21.3241505,22.4992727 19.8744729,22.4992727 C18.4247954,22.4992727 17.2495995,21.3240768 17.2495995,19.8743993 C17.2495995,18.4247217 18.4247954,17.2495259 19.8744729,17.2495259 Z M11.9995582,9.37475839 C13.4494026,9.37500223 14.6246954,10.5502292 14.6250207,12.0000736 L14.6250207,19.8749883 C14.624614,21.3246322 13.4492021,22.4995167 11.9995582,22.4992728 C10.5500293,22.4992728 9.37479684,21.3245172 9.37439022,19.8749883 L9.37439022,12.0000736 C9.37463413,10.5503106 10.5497952,9.37508358 11.9995582,9.37475839 Z M4.12493796,1.50072717 C4.82105704,1.50072717 5.48872051,1.7769836 5.98102009,2.26914508 C6.47331967,2.76130656 6.74995864,3.42889245 6.74995864,4.12501154 L6.74995864,19.874841 C6.74984149,20.5708956 6.47320237,21.2383907 5.98090702,21.730465 C5.48861168,22.2225395 4.82099247,22.4986837 4.12493796,22.4986837 C2.67572461,22.4986837 1.50081632,21.3240544 1.50065366,19.874841 L1.50065366,4.12501154 C1.50065366,3.4289961 1.77708835,2.76147642 2.2692456,2.26931918 C2.76140283,1.77716193 3.42892251,1.50072717 4.12493796,1.50072717 Z" id="Combined-Shape" fill="#000000" fill-rule="nonzero"></path>
    </g>
</svg>