<?xml version="1.0" encoding="UTF-8"?>
<svg width="30px" height="30px" viewBox="0 0 30 30" version="1.1" xmlns="http://www.w3.org/2000/svg" xmlns:xlink="http://www.w3.org/1999/xlink">
    <title>Combined Shape</title>
    <g id="Page-1" stroke="none" stroke-width="1" fill="none" fill-rule="evenodd">
        <path d="M26.1118821,22.0266213 C28.1165837,22.0266213 29.7417154,23.651753 29.7417154,25.6564546 C29.7417154,27.6611561 28.1165837,29.2862879 26.1118821,29.2862879 C24.1071805,29.2862879 22.4820488,27.6611561 22.4820488,25.6564546 C22.4820488,23.651753 24.1071805,22.0266213 26.1118821,22.0266213 Z M15.2219749,11.1369178 C17.2269072,11.137255 18.8521731,12.7624298 18.8526229,14.767362 L18.8526229,25.6572692 C18.8520605,27.6619242 17.22663,29.2866253 15.2219749,29.286288 C13.2174789,29.286288 11.5922966,27.6617651 11.5917343,25.6572692 L11.5917343,14.767362 C11.5920716,12.7625423 13.2171552,11.1373675 15.2219749,11.1369178 Z M4.33247505,0.24823243 C5.29511051,0.24823243 6.21839583,0.630256485 6.89917738,1.31084707 C7.57995894,1.99143765 7.962512,2.91461569 7.962512,3.87725117 L7.962512,25.6570655 C7.96234999,26.6196117 7.57979673,27.5426642 6.89902103,28.2231343 C6.21824533,28.9036045 5.29502121,29.2854734 4.33247505,29.2854734 C2.3284154,29.2854734 0.703681347,27.6611252 0.703456402,25.6570655 L0.703456402,3.87725117 C0.703456402,2.91475902 1.08572697,1.99167254 1.7663117,1.31108782 C2.44689642,0.630503093 3.3699829,0.24823243 4.33247505,0.24823243 Z" id="Combined-Shape" fill="#F8F8F8" fill-rule="nonzero"></path>
    </g>
</svg>