<?xml version="1.0" encoding="UTF-8"?>
<svg width="16px" height="16px" viewBox="0 0 16 16" version="1.1" xmlns="http://www.w3.org/2000/svg" xmlns:xlink="http://www.w3.org/1999/xlink">
    <g id="Artboard" stroke="none" stroke-width="1" fill="none" fill-rule="evenodd">
        <path d="M14.0000139,11.9999158 C15.1046067,11.9999158 16.000056,12.8953651 16.000056,13.9999578 C16.000056,15.1045505 15.1046067,15.9999999 14.0000139,15.9999999 C12.8954212,15.9999999 11.9999719,15.1045505 11.9999719,13.9999578 C11.9999719,12.8953651 12.8954212,11.9999158 14.0000139,11.9999158 Z M7.99966338,5.99967737 C9.10438324,5.99986317 9.99990644,6.89533621 10.0001543,8.00005606 L10.0001543,14.0004066 C9.99984441,15.1049737 9.10423047,16.0001858 7.99966338,16 C6.89518392,16 5.9997067,15.1048861 5.99939687,14.0004066 L5.99939687,8.00005606 C5.99958272,6.89539823 6.89500555,5.99992515 7.99966338,5.99967737 Z M1.9995372,0 C2.52995038,0 3.03868158,0.210495667 3.41379296,0.585501812 C3.78890433,0.960507957 3.99969147,1.46918005 3.99969147,1.99959323 L3.99969147,14.0002944 C3.99960221,14.5306584 3.78881495,15.0392613 3.4137068,15.4142011 C3.03859866,15.7891409 2.52990118,15.9995511 1.9995372,15.9995511 C0.895298179,15.9995511 6.79612486e-05,15.1045334 -5.59787631e-05,14.0002944 L-5.59787631e-05,1.99959323 C-5.59787631e-05,1.46925903 0.210575515,0.960637383 0.585578437,0.585634469 C0.960581344,0.210631547 1.46920299,0 1.9995372,0 Z" id="Combined-Shape" fill="#6000DE" fill-rule="nonzero"></path>
    </g>
</svg>