<svg width="400" height="163" viewBox="0 0 400 163" fill="none" xmlns="http://www.w3.org/2000/svg">
<path d="M192.044 22.5105H105.345V159.404H192.044V22.5105Z" fill="black"/>
<path d="M91.0852 132.595H3.81592V159.403H91.0852V132.595Z" fill="black"/>
<path d="M294.143 36.1997H207.444V159.403H294.143V36.1997Z" fill="black"/>
<path d="M396.813 4.25806H308.973V159.974H396.813V4.25806Z" fill="black"/>
<path d="M4.38623 63.008L23.7794 118.906H35.7576L46.595 87.5346L58.5731 118.906H71.1216L88.9462 63.008H75.2569L65.4177 94.9496L52.8692 62.8654H41.4614L30.6241 94.9496L20.0719 63.008H4.38623Z" fill="black"/>
<path d="M123.597 63.5784V118.05H138.427V88.3902L161.528 118.05H175.788V63.5784H160.387V92.3829L137.287 63.5784H123.597Z" fill="white"/>
<path d="M222.56 63.2219L242.808 96.9461V118.336H257.638L257.924 97.16L278.6 63.2219H262.772L250.794 82.9716L238.816 63.2932L222.56 63.222V63.2219Z" fill="white"/>
<path d="M377.99 73.275C373.965 77.149 371.304 79.6104 367.153 82.9716C355.852 69.6283 341.584 79.1214 341.584 90.5158C341.584 100.172 351.891 113.125 367.153 99.798C372.269 103.159 373.331 104.12 378.157 107.498C356.869 131.707 326.257 115.013 326.257 91.0096C326.257 65.4702 358.019 51.9133 377.99 73.275V73.275Z" fill="white"/>
</svg>
