<svg width="361" height="104" viewBox="0 0 361 104" fill="none" xmlns="http://www.w3.org/2000/svg">
<path d="M195.052 67.006C195.052 78.1545 181.179 77.4935 181.179 77.4935H167.307V57.345H181.179C195.464 57.2628 195.052 67.006 195.052 67.006ZM167.306 26.6257H177.876C188.858 27.2045 188.445 35.3792 188.445 35.3792C188.445 45.5356 176.307 45.7011 176.307 45.7011H167.306V26.6257ZM192.492 49.6658C192.492 49.6658 201.988 45.6189 201.906 34.8826C201.906 34.8826 203.35 17.2958 180.043 15.1485H154.175V88.8909H183.821C183.821 88.8909 208.593 88.9719 208.593 68.0791C208.595 68.0791 209.172 53.8758 192.492 49.6658V49.6658ZM125.561 0.69751H234.443V103.304H125.561V0.69751Z" fill="black"/>
<path d="M69.4918 67.006C69.4918 78.1545 55.6196 77.4935 55.6196 77.4935H41.7462V57.345H55.6196C69.9051 57.2628 69.4918 67.006 69.4918 67.006ZM41.7462 26.6257H52.3159C63.2989 27.2045 62.8856 35.3792 62.8856 35.3792C62.8856 45.5356 50.7463 45.7011 50.7463 45.7011H41.7462V26.6257ZM66.9324 49.6658C66.9324 49.6658 76.4291 45.6189 76.3469 34.8826C76.3469 34.8826 77.7903 17.2958 54.484 15.1485H28.616V88.8909H58.2623C58.2623 88.8909 83.0364 88.9719 83.0364 68.0791C83.0353 68.0791 83.6129 53.8758 66.9324 49.6658V49.6658ZM0 0.69751H108.882V103.304H0V0.69751Z" fill="black"/>
<path d="M337.789 20.4339V34.0584C337.789 34.0584 324.494 25.8837 309.793 25.7182C309.793 25.7182 282.379 25.1834 281.14 52.0006C281.14 52.0006 280.148 76.6705 309.463 78.0723C309.463 78.0723 321.768 79.5586 338.449 68.9056V83.0266C338.449 83.0266 316.072 96.3212 290.141 86.0815C290.141 86.0815 268.342 78.114 267.515 52.0006C267.515 52.0006 266.606 25.1417 295.673 16.2239C295.673 16.2239 303.436 13.2501 317.392 14.572C317.39 14.5709 325.732 15.3974 337.789 20.4339ZM251.12 103.304H360.001V0.69751H251.12V103.304Z" fill="black"/>
</svg>
