<svg width="601" height="150" viewBox="0 0 601 150" xmlns="http://www.w3.org/2000/svg" xmlns:xlink="http://www.w3.org/1999/xlink">
    <path id="Path" fill="#000000" fill-rule="evenodd" stroke="none" d="M 64.800102 53.099998 L 119.599998 53.099998 C 122.699997 60 124.300003 67.599998 124.599998 75.400002 C 124.599998 107.699997 96.700104 134 62.600101 134 C 28.400101 134 0.600098 107.800003 0.600098 75.400002 C 0.600098 43.099998 28.500099 16.799988 62.600101 16.799988 C 72.600098 16.799988 82.400101 19.200012 91.200104 23.5 L 91.200104 31 C 52.300098 9.700012 42.300098 44.5 42.300098 75.400002 C 42.300098 105.900002 52.900101 127.300003 62.500099 127.300003 C 71.900101 127.300003 82.500099 105.900002 82.500099 75.400002 C 82.500099 70.599998 82.100098 65.900002 81.700104 61.599998 C 81.500099 60.599998 80.700104 59.800003 79.700104 59.800003 L 63.800098 59.800003 C 64.000099 57.599998 64.400101 55.300003 64.800102 53.099998 Z M 37.800098 52.099998 C 40.100101 41.099998 44.400101 31.5 51.100101 25.600006 C 51.7001 25 51.300098 24.199982 50.7001 24.399994 C 34.100101 28.300003 21.1001 38.699997 13.7001 51.699997 C 13.3001 52.300003 13.7001 53.099998 14.5001 53.099998 L 36.600101 53.099998 C 37.2001 53.099998 37.600101 52.699997 37.800098 52.099998 Z M 34.900101 59.800003 L 11.4001 59.800003 C 10.4001 59.800003 9.8001 60.400002 9.4001 61.199997 C 8.0001 65.800003 7.2001 70.5 7.2001 75.400002 C 7.2001 79.800003 7.8001 84.300003 9.0001 88.599998 C 9.4001 89.400002 10.2001 90 11.0001 90 L 34.500099 90 C 35.300098 90 35.900101 89.400002 35.900101 88.599998 C 35.500099 84.400002 35.300098 79.900002 35.300098 75.400002 C 35.300098 70.599998 35.500099 65.900002 36.100101 61.199997 C 36.300098 60.400002 35.7001 59.800003 34.900101 59.800003 Z M 36.2001 96.900002 L 14.3001 96.900002 C 13.3001 96.900002 12.6001 98.099998 12.9001 98.900002 C 19.6001 111.300003 31.7001 120.800003 46.2001 124.900002 C 46.800098 125.099998 47.400101 124.300003 47.000099 123.900002 C 42.7001 117.599998 39.400101 108.5 37.400101 97.900002 C 37.400101 97.300003 36.800098 96.900002 36.2001 96.900002 Z M 87.300102 98.099998 C 85.300102 108.599998 81.800102 117.800003 77.500099 124.099998 C 77.300102 124.5 77.700104 125.400002 78.300102 125.099998 C 92.800102 121.099998 104.900002 111.300003 111.599998 99.099998 C 112 98.099998 111.400002 97.099998 110.400002 97.099998 L 88.500099 97.099998 C 87.900101 97.099998 87.500099 97.5 87.300102 98.099998 Z M 90.000099 90.199997 L 113.900002 90.199997 C 114.699997 90.199997 115.5 89.5 115.5 89 C 116.699997 84.800003 117.300003 80.5 117.300003 75.800003 C 117.300003 71 116.699997 66.099998 115.300003 61.599998 C 115.099998 60.800003 114.300003 60.199997 113.5 60.199997 L 89.800102 60.199997 C 89.000099 60.199997 88.400101 60.800003 88.400101 61.599998 C 89.000099 66 89.200104 70.699997 89.200104 75.599998 C 89.200104 80 89.000099 84.5 88.600098 88.800003 C 88.600098 89.599998 89.200104 90.199997 90.000099 90.199997 Z M 191.800003 64.400002 C 178.899994 64.400002 169.699997 58.599998 169.699997 45.5 C 169.699997 32.599998 180 26.199997 192.399994 26.199997 C 201.199997 26.199997 205.199997 28.800003 207.699997 30.5 L 204.300003 37.599998 C 202.100006 36.099998 199 34.199997 192.800003 34.199997 C 185.100006 34.199997 179.300003 37.900002 179.300003 45.099998 C 179.300003 52.400002 184.300003 56.199997 192.5 56.199997 C 195.100006 56.199997 197.300003 55.900002 199.100006 55.400002 L 199.100006 49.5 L 191.399994 49.5 L 191.399994 42.5 L 207.5 42.5 L 207.5 60.300003 C 205.399994 61.599998 200.800003 64.400002 191.800003 64.400002 Z M 260.828003 63.699997 L 260.899994 63.800003 L 260.899994 63.699997 L 260.828003 63.699997 Z M 260.828003 63.699997 L 251.5 50.800003 C 256.799988 48.800003 259.5 45 259.5 39.5 C 259.5 31.199997 253.899994 26.699997 241.800003 26.699997 L 224.800003 26.699997 L 224.800003 63.699997 L 234.100006 63.699997 L 234.100006 52.099998 L 241.800003 52.099998 L 249.399994 63.699997 L 260.828003 63.699997 Z M 241.199997 44.800003 C 247.199997 44.800003 249.899994 43 249.899994 39.800003 C 249.899994 36.400002 247.600006 34.699997 241.5 34.699997 L 234.199997 34.699997 L 234.199997 44.800003 L 241.199997 44.800003 Z M 289.299988 26.800003 L 299.5 26.800003 L 315.799988 63.800003 L 305.600006 63.800003 L 302 54.900002 L 286.600006 54.900002 L 283 63.800003 L 273 63.800003 L 289.299988 26.800003 Z M 289 48.5 L 299.5 48.5 L 294.299988 35.599998 L 294.200012 35.599998 L 289 48.5 Z M 358.600006 26.800003 L 367.899994 26.800003 L 367.899994 63.800003 L 358.5 63.800003 L 339.600006 41.099998 L 339.5 41.099998 L 339.5 63.800003 L 330.200012 63.800003 L 330.200012 26.800003 L 339.600006 26.800003 L 358.5 49.5 L 358.600006 49.5 L 358.600006 26.800003 Z M 382.600006 26.800003 L 421.799988 26.800003 L 421.899994 26.800003 L 421.899994 34.699997 L 407 34.699997 L 407 63.699997 L 397.600006 63.699997 L 397.600006 34.699997 L 382.600006 34.699997 L 382.600006 26.800003 Z M 462.399994 26.800003 L 492 26.800003 L 492 34.800003 L 471.700012 34.800003 L 471.700012 44.199997 L 490.100006 44.199997 L 490.100006 52.199997 L 471.700012 52.199997 L 471.700012 63.800003 L 462.399994 63.800003 L 462.399994 26.800003 Z M 526.700012 26.199997 C 540.400024 26.199997 548.299988 33.699997 548.299988 45.300003 C 548.299988 56.900002 540.299988 64.400002 526.700012 64.400002 C 513 64.400002 505.100006 56.800003 505.100006 45.300003 C 505.100006 33.800003 513.099976 26.199997 526.700012 26.199997 Z M 526.799988 56.199997 C 534.099976 56.199997 538.700012 51.900002 538.700012 45.199997 C 538.700012 38.5 534.099976 34.300003 526.700012 34.300003 C 519.299988 34.300003 514.700012 38.599998 514.700012 45.199997 C 514.700012 51.900002 519.299988 56.199997 526.799988 56.199997 Z M 600.528015 63.699997 L 600.599976 63.800003 L 600.599976 63.699997 L 600.528015 63.699997 Z M 600.528015 63.699997 L 591.200012 50.800003 C 596.5 48.800003 599.200012 45 599.200012 39.5 C 599.200012 31.199997 593.599976 26.699997 581.5 26.699997 L 564.5 26.699997 L 564.5 63.699997 L 573.799988 63.699997 L 573.799988 52.099998 L 581.5 52.099998 L 589.099976 63.699997 L 600.528015 63.699997 Z M 580.799988 44.800003 C 586.799988 44.800003 589.5 43 589.5 39.800003 C 589.5 36.400002 587.200012 34.699997 581.099976 34.699997 L 573.799988 34.699997 L 573.799988 44.800003 L 580.799988 44.800003 Z M 168.5 90.400002 L 207.699997 90.400002 L 207.800003 90.400002 L 207.800003 98.300003 L 192.899994 98.300003 L 192.899994 127.300003 L 183.5 127.300003 L 183.5 98.300003 L 168.5 98.300003 L 168.5 90.400002 Z M 250.800003 90.400002 L 260.200012 90.400002 L 260.200012 127.400002 L 250.800003 127.400002 L 250.800003 112.599998 L 231.699997 112.599998 L 231.699997 127.400002 L 222.399994 127.400002 L 222.399994 90.400002 L 231.699997 90.400002 L 231.699997 104.599998 L 250.800003 104.599998 L 250.800003 90.400002 Z M 278 90.400002 L 307.5 90.400002 L 307.5 98.300003 L 287.399994 98.300003 L 287.399994 104.900002 L 305.600006 104.900002 L 305.600006 112.199997 L 287.399994 112.199997 L 287.399994 119.400002 L 308 119.400002 L 308 127.400002 L 278 127.400002 L 278 90.400002 Z M 397.600006 90.400002 L 407.5 90.400002 L 397.100006 127.400002 L 387.5 127.400002 L 377.600006 101.800003 L 377.5 101.800003 L 367.5 127.400002 L 357.899994 127.400002 L 347.600006 90.400002 L 357.5 90.400002 L 363.5 114.900002 L 363.600006 114.900002 L 372.799988 90.400002 L 382.299988 90.400002 L 391.5 114.900002 L 391.600006 114.900002 L 397.600006 90.400002 Z M 422.299988 90.400002 L 451.799988 90.400002 L 451.799988 98.300003 L 431.700012 98.300003 L 431.700012 104.900002 L 449.899994 104.900002 L 449.899994 112.199997 L 431.700012 112.199997 L 431.700012 119.400002 L 452.299988 119.400002 L 452.299988 127.400002 L 422.299988 127.400002 L 422.299988 90.400002 Z M 496 108.300003 C 500.600006 109.199997 504 112.300003 504 117 C 504 123.099998 499.299988 127.400002 487.5 127.400002 L 468.899994 127.400002 L 468.899994 90.400002 L 487.299988 90.400002 C 498.100006 90.400002 502.399994 94.099998 502.399994 99.900002 C 502.399994 104.300003 499.700012 107.199997 496 108.199997 L 496 108.300003 Z M 486.100006 105.199997 C 491.200012 105.199997 493.100006 103.699997 493.100006 101.300003 C 493.100006 99 491.399994 97.699997 486.100006 97.699997 L 478.100006 97.699997 L 478.100006 105.199997 L 486.100006 105.199997 Z M 486.799988 119.699997 C 492.700012 119.699997 494.600006 118.300003 494.600006 115.800003 C 494.600006 113.300003 492.600006 111.800003 486.600006 111.800003 L 478.100006 111.800003 L 478.100006 119.699997 L 486.799988 119.699997 Z"/>
</svg>
