<svg width="350" height="120" viewBox="0 0 350 120" xmlns="http://www.w3.org/2000/svg" xmlns:xlink="http://www.w3.org/1999/xlink">
    <path id="Path" fill="#000000" fill-rule="evenodd" stroke="none" d="M 349.855011 10 L 0.144043 10 L 0.144043 110 L 349.855011 110 L 349.855011 10 Z M 332.317993 82.075996 C 332.894989 82.075996 333.471985 81.971001 334.153992 81.778 L 334.223999 88.370003 C 331.89801 89.647003 329.083008 90.416 326.372986 90.416 C 320.549988 90.416 317.350006 87.024002 316.77301 81.691002 C 314.255005 86.150002 309.79599 90.416 302.714996 90.416 C 296.402008 90.416 289.233002 87.005997 289.233002 77.896004 C 289.233002 67.125 299.619995 64.607101 309.604004 64.607101 C 312.033997 64.607101 314.552002 64.695 316.790985 64.992096 L 316.790985 63.541 C 316.790985 59.082001 316.686005 53.749001 309.604004 53.749001 C 306.980988 53.749001 304.953003 53.941002 302.907013 55.008102 L 301.490997 59.938999 L 291.506012 58.872002 L 293.220001 48.800003 C 300.895996 45.7061 304.76001 44.8311 311.946991 44.8311 C 321.354004 44.8311 329.309998 49.692001 329.309998 59.676998 L 329.309998 78.682999 C 329.309998 81.200996 330.272003 82.075996 332.317993 82.075996 Z M 302.154999 76.445099 C 302.154999 79.260002 303.519012 81.499001 307.29599 81.499001 C 311.755005 81.499001 316.510986 78.299004 316.808014 71.007004 C 314.761993 70.727097 312.523987 70.430099 310.496002 70.430099 C 306.036987 70.430099 302.154999 71.688995 302.154999 76.445099 Z M 271.572998 89.454002 L 290.492004 22.711998 L 278.165009 22.711998 L 259.244995 89.454002 L 271.572998 89.454002 Z M 246.166 89.454002 L 265.085999 22.711998 L 252.776001 22.711998 L 233.856003 89.454002 L 246.166 89.454002 Z M 225.656006 45.7061 L 212.559006 45.7061 L 212.559006 61.408001 L 225.656006 61.408001 L 225.656006 45.7061 Z M 225.656006 73.735001 L 212.559006 73.735001 L 212.559006 89.454002 L 225.656006 89.454002 L 225.656006 73.735001 Z M 203.397003 74.120003 L 193.5 73.158005 L 191.470993 79.942001 L 177.307999 79.942001 L 201.578003 52.279999 L 200.598999 45.688004 L 162.182999 45.688004 L 160.626999 61.022999 L 169.649002 62.001999 L 171.589996 55.218002 L 185.264008 55.218002 L 161.203995 82.862099 L 162.462997 89.454002 L 200.686005 89.454002 L 203.397003 74.120003 Z M 107.331001 68.209 C 107.331001 55.410004 115.094002 44.8311 130.813995 44.8311 C 146.516006 44.8311 154.192001 55.393097 154.192001 67.615097 C 154.192001 81.586098 144.102997 90.416 130.132004 90.416 C 116.651001 90.416 107.331001 82.180099 107.331001 68.209 Z M 120.235001 67.423004 C 120.235001 74.994003 123.732002 80.817001 130.516998 80.817001 C 137.020996 80.817001 141.287994 75.570999 141.287994 67.229996 C 141.287994 58.400002 136.531998 54.431 130.621994 54.431 C 124.204002 54.431 120.235001 59.168999 120.235001 67.423004 Z M 101.892998 79.942001 L 96.087898 79.942001 L 96.087898 59.938999 C 96.087898 49.57 88.900902 44.813995 81.049797 44.813995 C 74.160896 44.813995 69.211899 48.397995 66.781998 54.221001 C 64.630898 47.820999 58.825901 44.813995 52.513901 44.813995 C 46.4109 44.813995 41.846901 47.628998 39.224899 52.279999 L 39.224899 45.688004 L 20.8999 45.688004 L 20.8999 55.199997 L 26.721901 55.199997 L 26.721901 79.942001 L 20.8999 79.942001 L 20.8999 89.454002 L 47.564899 89.454002 L 47.564899 79.942001 L 39.224899 79.942001 L 39.224899 64.729996 C 39.224899 58.610001 41.6548 54.343002 47.669899 54.343002 C 52.617901 54.343002 55.136002 57.245998 55.136002 64.817001 L 55.136002 89.454002 L 73.460899 89.454002 L 73.460899 79.942001 L 67.638901 79.942001 L 67.638901 64.729996 C 67.638901 58.610001 70.068802 54.343002 76.084 54.343002 C 81.032997 54.343002 83.549797 57.245998 83.549797 64.817001 L 83.549797 89.454002 L 101.892998 89.454002 L 101.892998 79.942001 Z"/>
</svg>
