<svg width="350" height="100" viewBox="0 0 350 100" fill="none" xmlns="http://www.w3.org/2000/svg">
<path fill-rule="evenodd" clip-rule="evenodd" d="M349.855 0H0.144043V100H349.855V0ZM332.318 72.076C332.895 72.076 333.472 71.971 334.154 71.778L334.224 78.37C331.898 79.647 329.083 80.416 326.373 80.416C320.55 80.416 317.35 77.024 316.773 71.691C314.255 76.15 309.796 80.416 302.715 80.416C296.402 80.416 289.233 77.006 289.233 67.896C289.233 57.125 299.62 54.6071 309.604 54.6071C312.034 54.6071 314.552 54.695 316.791 54.9921V53.541C316.791 49.082 316.686 43.749 309.604 43.749C306.981 43.749 304.953 43.941 302.907 45.0081L301.491 49.939L291.506 48.872L293.22 38.8C300.896 35.7061 304.76 34.8311 311.947 34.8311C321.354 34.8311 329.31 39.692 329.31 49.677V68.683C329.31 71.201 330.272 72.076 332.318 72.076ZM302.155 66.4451C302.155 69.26 303.519 71.499 307.296 71.499C311.755 71.499 316.511 68.299 316.808 61.007C314.762 60.7271 312.524 60.4301 310.496 60.4301C306.037 60.4301 302.155 61.689 302.155 66.4451ZM271.573 79.454L290.492 12.712H278.165L259.245 79.454H271.573ZM246.166 79.454L265.086 12.712H252.776L233.856 79.454H246.166ZM225.656 35.7061H212.559V51.408H225.656V35.7061ZM225.656 63.735H212.559V79.454H225.656V63.735ZM203.397 64.12L193.5 63.158L191.471 69.942H177.308L201.578 42.28L200.599 35.688H162.183L160.627 51.023L169.649 52.002L171.59 45.218H185.264L161.204 72.8621L162.463 79.454H200.686L203.397 64.12ZM107.331 58.209C107.331 45.41 115.094 34.8311 130.814 34.8311C146.516 34.8311 154.192 45.3931 154.192 57.6151C154.192 71.5861 144.103 80.416 130.132 80.416C116.651 80.416 107.331 72.1801 107.331 58.209ZM120.235 57.423C120.235 64.994 123.732 70.817 130.517 70.817C137.021 70.817 141.288 65.571 141.288 57.23C141.288 48.4 136.532 44.431 130.622 44.431C124.204 44.431 120.235 49.169 120.235 57.423ZM101.893 69.942H96.0879V49.939C96.0879 39.57 88.9009 34.814 81.0498 34.814C74.1609 34.814 69.2119 38.398 66.782 44.221C64.6309 37.821 58.8259 34.814 52.5139 34.814C46.4109 34.814 41.8469 37.629 39.2249 42.28V35.688H20.8999V45.2H26.7219V69.942H20.8999V79.454H47.5649V69.942H39.2249V54.73C39.2249 48.61 41.6548 44.343 47.6699 44.343C52.6179 44.343 55.136 47.246 55.136 54.817V79.454H73.4609V69.942H67.6389V54.73C67.6389 48.61 70.0688 44.343 76.084 44.343C81.033 44.343 83.5498 47.246 83.5498 54.817V79.454H101.893V69.942Z" fill="black"/>
</svg>
