<svg width="468" height="240" viewBox="0 0 468 240" fill="none" xmlns="http://www.w3.org/2000/svg">
<g clip-path="url(#clip0_26740_30012)">
<path d="M467.91 87.23V86.82H468V64.91H467.91V64.84H447.64V34.18H418.84V64.84H375.27C370.997 63.6012 366.569 62.9815 362.12 63C348.28 63 338.28 67.25 328.91 77C321.91 67.42 311.91 63 299.55 63C294.407 62.9878 289.312 63.9972 284.562 65.9696C279.813 67.942 275.502 70.8382 271.88 74.49V65H225.79L225.86 64.79C230.86 52.03 236.86 38.99 245.94 28.24C247.53 26.3292 249.219 24.5034 251 22.77C252.58 21.25 254 19.9 255.4 18.7C258.237 16.0749 261.36 13.7772 264.71 11.85C266.853 10.6838 269.198 9.93396 271.62 9.64C272.647 9.52963 273.683 9.52963 274.71 9.64C277.62 10.04 283.06 10.84 283.43 15.22C283.43 17.61 279.79 19.22 275.43 21.99C273.313 23.4226 271.442 25.1888 269.89 27.22C268.002 29.79 266.785 32.7907 266.35 35.95C266.04 38.5295 266.454 41.1444 267.545 43.5021C268.637 45.8599 270.363 47.8674 272.53 49.3C274.341 50.5437 276.504 51.1714 278.7 51.09C283.185 50.3019 287.377 48.3268 290.84 45.37C297.37 39.61 299.01 31.17 299.11 24.88C299.155 22.7153 299.014 20.5507 298.69 18.41C298.056 16.3737 297.318 14.3711 296.48 12.41C294.98 8.86378 292.469 5.83787 289.26 3.71C285.92 1.54 281.26 0.07 274.71 0.07C273.86 0.07 273.02 0.07 272.18 0.14L273.69 0C273.2 0 272.69 0 272.2 0C254.76 0 239.14 8.37 226.42 20.32C222.758 23.9116 219.362 27.7651 216.26 31.85C208.565 41.9214 202.436 53.0975 198.08 65V65H136L117.4 136.32L93.68 65H72.68L49.16 136.28L30.56 65H0L35.43 180.35H59.13L83.27 107.93L107.41 180.35H131.11L160.37 84.47H191.37C182.93 112.7 173.37 162.88 161.67 193.57C155.77 209.08 148.9 221.16 140.54 226.09C138.934 227.063 137.182 227.769 135.35 228.18C134.91 228.27 134.47 228.34 134.03 228.4C134.357 228.482 134.693 228.525 135.03 228.53C135.541 228.53 136.052 228.5 136.56 228.44C135.927 228.532 135.289 228.579 134.65 228.58C134.199 228.599 133.748 228.526 133.326 228.367C132.903 228.208 132.517 227.965 132.19 227.654C131.864 227.342 131.603 226.968 131.424 226.553C131.246 226.138 131.152 225.692 131.15 225.24C131.435 224.494 131.941 223.852 132.6 223.4C135.24 220.48 138.44 217.66 140.43 214.18C142.865 211.555 144.406 208.226 144.83 204.67C145.276 200.559 144.317 196.417 142.11 192.92C140.696 190.531 138.624 188.6 136.141 187.359C133.658 186.117 130.87 185.618 128.11 185.92C113.21 187.92 110.3 202.66 110.3 210.23C110.233 216.799 112.32 223.209 116.24 228.48C119.762 233.766 125.221 237.455 131.44 238.75V238.9L134.99 239.22C141.659 239.782 148.338 238.266 154.11 234.88C154.4 234.73 154.68 234.58 154.96 234.41L155.36 234.17C198.17 208.88 219.66 88.61 220.36 84.45H244.86V180.03H272.53V108.03C272.53 92.92 282.32 87.81 291.05 87.81C299.78 87.81 309.35 92.92 309.35 108.03V180.03H337V107.43C337 92.96 347 87.85 355.51 87.85C364.24 87.85 373.81 92.96 373.81 108.07V180.07H401.48V104.26C401.576 98.4761 400.648 92.7209 398.74 87.26H418.83V147.39C418.83 163.77 428.83 180.39 452.26 180.39H468V156H457.6C450.73 156 447.6 152.24 447.6 145.59V87.23H467.91Z" fill="black"/>
</g>
<defs>
<clipPath id="clip0_26740_30012">
<rect width="468" height="239.37" fill="white"/>
</clipPath>
</defs>
</svg>
