<svg width="601" height="118" viewBox="0 0 601 118" fill="none" xmlns="http://www.w3.org/2000/svg">
<path fill-rule="evenodd" clip-rule="evenodd" d="M64.8001 37.1H119.6C122.7 44 124.3 51.6 124.6 59.4C124.6 91.7 96.7001 118 62.6001 118C28.4001 118 0.600098 91.8 0.600098 59.4C0.600098 27.1 28.5001 0.799988 62.6001 0.799988C72.6001 0.799988 82.4001 3.20001 91.2001 7.5V15C52.3001 -6.29999 42.3001 28.5 42.3001 59.4C42.3001 89.9 52.9001 111.3 62.5001 111.3C71.9001 111.3 82.5001 89.9 82.5001 59.4C82.5001 54.6 82.1001 49.9 81.7001 45.6C81.5001 44.6 80.7001 43.8 79.7001 43.8H63.8001C64.0001 41.6 64.4001 39.3 64.8001 37.1ZM37.8001 36.1C40.1001 25.1 44.4001 15.5 51.1001 9.60001C51.7001 9 51.3001 8.19998 50.7001 8.39999C34.1001 12.3 21.1001 22.7 13.7001 35.7C13.3001 36.3 13.7001 37.1 14.5001 37.1H36.6001C37.2001 37.1 37.6001 36.7 37.8001 36.1ZM34.9001 43.8H11.4001C10.4001 43.8 9.8001 44.4 9.4001 45.2C8.0001 49.8 7.2001 54.5 7.2001 59.4C7.2001 63.8 7.8001 68.3 9.0001 72.6C9.4001 73.4 10.2001 74 11.0001 74H34.5001C35.3001 74 35.9001 73.4 35.9001 72.6C35.5001 68.4 35.3001 63.9 35.3001 59.4C35.3001 54.6 35.5001 49.9 36.1001 45.2C36.3001 44.4 35.7001 43.8 34.9001 43.8ZM36.2001 80.9H14.3001C13.3001 80.9 12.6001 82.1 12.9001 82.9C19.6001 95.3 31.7001 104.8 46.2001 108.9C46.8001 109.1 47.4001 108.3 47.0001 107.9C42.7001 101.6 39.4001 92.5 37.4001 81.9C37.4001 81.3 36.8001 80.9 36.2001 80.9ZM87.3001 82.1C85.3001 92.6 81.8001 101.8 77.5001 108.1C77.3001 108.5 77.7001 109.4 78.3001 109.1C92.8001 105.1 104.9 95.3 111.6 83.1C112 82.1 111.4 81.1 110.4 81.1H88.5001C87.9001 81.1 87.5001 81.5 87.3001 82.1ZM90.0001 74.2H113.9C114.7 74.2 115.5 73.5 115.5 73C116.7 68.8 117.3 64.5 117.3 59.8C117.3 55 116.7 50.1 115.3 45.6C115.1 44.8 114.3 44.2 113.5 44.2H89.8001C89.0001 44.2 88.4001 44.8 88.4001 45.6C89.0001 50 89.2001 54.7 89.2001 59.6C89.2001 64 89.0001 68.5 88.6001 72.8C88.6001 73.6 89.2001 74.2 90.0001 74.2ZM191.8 48.4C178.9 48.4 169.7 42.6 169.7 29.5C169.7 16.6 180 10.2 192.4 10.2C201.2 10.2 205.2 12.8 207.7 14.5L204.3 21.6C202.1 20.1 199 18.2 192.8 18.2C185.1 18.2 179.3 21.9 179.3 29.1C179.3 36.4 184.3 40.2 192.5 40.2C195.1 40.2 197.3 39.9 199.1 39.4V33.5H191.4V26.5H207.5V44.3C205.4 45.6 200.8 48.4 191.8 48.4ZM260.828 47.7L260.9 47.8V47.7H260.828ZM260.828 47.7L251.5 34.8C256.8 32.8 259.5 29 259.5 23.5C259.5 15.2 253.9 10.7 241.8 10.7H224.8V47.7H234.1V36.1H241.8L249.4 47.7H260.828ZM241.2 28.8C247.2 28.8 249.9 27 249.9 23.8C249.9 20.4 247.6 18.7 241.5 18.7H234.2V28.8H241.2ZM289.3 10.8H299.5L315.8 47.8H305.6L302 38.9H286.6L283 47.8H273L289.3 10.8ZM289 32.5H299.5L294.3 19.6H294.2L289 32.5ZM358.6 10.8H367.9V47.8H358.5L339.6 25.1H339.5V47.8H330.2V10.8H339.6L358.5 33.5H358.6V10.8ZM382.6 10.8H421.8H421.9V18.7H407V47.7H397.6V18.7H382.6V10.8ZM462.4 10.8H492V18.8H471.7V28.2H490.1V36.2H471.7V47.8H462.4V10.8ZM526.7 10.2C540.4 10.2 548.3 17.7 548.3 29.3C548.3 40.9 540.3 48.4 526.7 48.4C513 48.4 505.1 40.8 505.1 29.3C505.1 17.8 513.1 10.2 526.7 10.2ZM526.8 40.2C534.1 40.2 538.7 35.9 538.7 29.2C538.7 22.5 534.1 18.3 526.7 18.3C519.3 18.3 514.7 22.6 514.7 29.2C514.7 35.9 519.3 40.2 526.8 40.2ZM600.528 47.7L600.6 47.8V47.7H600.528ZM600.528 47.7L591.2 34.8C596.5 32.8 599.2 29 599.2 23.5C599.2 15.2 593.6 10.7 581.5 10.7H564.5V47.7H573.8V36.1H581.5L589.1 47.7H600.528ZM580.8 28.8C586.8 28.8 589.5 27 589.5 23.8C589.5 20.4 587.2 18.7 581.1 18.7H573.8V28.8H580.8ZM168.5 74.4H207.7H207.8V82.3H192.9V111.3H183.5V82.3H168.5V74.4ZM250.8 74.4H260.2V111.4H250.8V96.6H231.7V111.4H222.4V74.4H231.7V88.6H250.8V74.4ZM278 74.4H307.5V82.3H287.4V88.9H305.6V96.2H287.4V103.4H308V111.4H278V74.4ZM397.6 74.4H407.5L397.1 111.4H387.5L377.6 85.8H377.5L367.5 111.4H357.9L347.6 74.4H357.5L363.5 98.9H363.6L372.8 74.4H382.3L391.5 98.9H391.6L397.6 74.4ZM422.3 74.4H451.8V82.3H431.7V88.9H449.9V96.2H431.7V103.4H452.3V111.4H422.3V74.4ZM496 92.3C500.6 93.2 504 96.3 504 101C504 107.1 499.3 111.4 487.5 111.4H468.9V74.4H487.3C498.1 74.4 502.4 78.1 502.4 83.9C502.4 88.3 499.7 91.2 496 92.2V92.3ZM486.1 89.2C491.2 89.2 493.1 87.7 493.1 85.3C493.1 83 491.4 81.7 486.1 81.7H478.1V89.2H486.1ZM486.8 103.7C492.7 103.7 494.6 102.3 494.6 99.8C494.6 97.3 492.6 95.8 486.6 95.8H478.1V103.7H486.8Z" fill="black"/>
</svg>
