<?xml version="1.0" encoding="UTF-8"?>
<svg xmlns="http://www.w3.org/2000/svg" xmlns:xlink="http://www.w3.org/1999/xlink" width="365pt" height="103.25pt" viewBox="0 0 365 103.25" version="1.1">
<defs>
<clipPath id="clip1">
  <path d="M 0 0 L 104 0 L 104 103.25 L 0 103.25 Z M 0 0 "/>
</clipPath>
</defs>
<g id="surface1">
<g clip-path="url(#clip1)" clip-rule="nonzero">
<path style=" stroke:none;fill-rule:nonzero;fill:rgb(0.799561%,1.199341%,1.199341%);fill-opacity:1;" d="M 0 -0.00390625 L 103.253906 -0.00390625 L 103.253906 103.25 L 0 103.25 L 0 -0.00390625 "/>
</g>
<path style=" stroke:none;fill-rule:nonzero;fill:rgb(100%,100%,100%);fill-opacity:1;" d="M 39.769531 22.101563 L 25.007813 22.101563 L 25.007813 44.917969 Z M 25.074219 58.328125 L 25.074219 81.144531 L 39.832031 81.144531 Z M 57.492188 33.898438 L 57.492188 45.695313 L 82.566406 45.695313 L 82.566406 57.488281 L 57.492188 57.488281 L 57.492188 81.078125 L 38.414063 51.558594 L 57.492188 22.039063 L 85.53125 22.039063 L 85.53125 33.835938 L 57.492188 33.898438 "/>
<path style=" stroke:none;fill-rule:nonzero;fill:rgb(0.799561%,1.199341%,1.199341%);fill-opacity:1;" d="M 136.0625 29.324219 L 145.085938 18.363281 L 151.53125 18.363281 L 142.441406 29.195313 L 152.367188 44.726563 L 145.601563 44.726563 L 138.574219 33.835938 L 136.125 36.796875 L 136.125 44.726563 L 130.324219 44.726563 L 130.324219 18.363281 L 136.125 18.363281 L 136.125 29.324219 L 136.0625 29.324219 "/>
<path style=" stroke:none;fill-rule:nonzero;fill:rgb(0.799561%,1.199341%,1.199341%);fill-opacity:1;" d="M 170.671875 44.726563 L 161.585938 27.132813 L 161.585938 44.726563 L 156.171875 44.726563 L 156.171875 18.363281 L 163.003906 18.363281 L 171.769531 36.21875 L 171.769531 18.363281 L 177.183594 18.363281 L 177.183594 44.726563 L 170.671875 44.726563 "/>
<path style=" stroke:none;fill-rule:nonzero;fill:rgb(0.799561%,1.199341%,1.199341%);fill-opacity:1;" d="M 191.234375 40.988281 L 193.875 40.988281 L 193.875 44.726563 L 182.789063 44.726563 L 182.789063 40.988281 L 185.433594 40.988281 L 185.433594 22.101563 L 182.789063 22.101563 L 182.789063 18.363281 L 193.875 18.363281 L 193.875 22.101563 L 191.234375 22.101563 L 191.234375 40.988281 "/>
<path style=" stroke:none;fill-rule:nonzero;fill:rgb(0.799561%,1.199341%,1.199341%);fill-opacity:1;" d="M 209.601563 31.320313 L 219.207031 31.320313 L 219.207031 45.113281 L 215.53125 45.113281 L 214.953125 42.019531 C 213.46875 43.953125 211.085938 45.113281 208.378906 45.113281 C 201.804688 45.113281 197.871094 40.601563 197.871094 32.09375 C 197.871094 22.039063 202.769531 17.847656 209.472656 17.847656 C 215.273438 17.847656 218.5625 21.265625 218.625 27.453125 L 212.890625 27.90625 C 212.824219 23.585938 211.148438 22.425781 209.023438 22.425781 C 206.25 22.425781 203.929688 24.617188 203.929688 31.773438 C 203.929688 38.21875 206.058594 40.472656 209.214844 40.472656 C 211.664063 40.472656 213.855469 38.925781 214.050781 35.382813 L 209.539063 35.382813 L 209.539063 31.320313 L 209.601563 31.320313 "/>
<path style=" stroke:none;fill-rule:nonzero;fill:rgb(0.799561%,1.199341%,1.199341%);fill-opacity:1;" d="M 245.890625 44.726563 L 240.023438 44.726563 L 240.023438 34.027344 L 231.066406 34.027344 L 231.066406 44.726563 L 225.265625 44.726563 L 225.265625 18.363281 L 231.066406 18.363281 L 231.066406 29.257813 L 240.023438 29.257813 L 240.023438 18.363281 L 245.890625 18.363281 L 245.890625 44.726563 "/>
<path style=" stroke:none;fill-rule:nonzero;fill:rgb(0.799561%,1.199341%,1.199341%);fill-opacity:1;" d="M 257.167969 23.070313 L 250.207031 23.070313 L 250.207031 18.363281 L 269.996094 18.363281 L 269.996094 23.070313 L 263.035156 23.070313 L 263.035156 44.726563 L 257.167969 44.726563 L 257.167969 23.070313 "/>
<path style=" stroke:none;fill-rule:nonzero;fill:rgb(0.799561%,1.199341%,1.199341%);fill-opacity:1;" d="M 144.503906 77.277344 L 136.0625 77.277344 L 136.0625 87.78125 L 130.261719 87.78125 L 130.261719 61.421875 L 145.792969 61.421875 L 145.792969 66.125 L 136.0625 66.125 L 136.0625 72.699219 L 144.503906 72.699219 L 144.503906 77.277344 "/>
<path style=" stroke:none;fill-rule:nonzero;fill:rgb(0.799561%,1.199341%,1.199341%);fill-opacity:1;" d="M 165.902344 74.375 C 165.902344 68.253906 164.355469 65.609375 160.941406 65.609375 C 157.652344 65.609375 155.527344 68.253906 155.527344 74.503906 C 155.527344 80.757813 157.136719 83.59375 160.746094 83.59375 C 164.226563 83.65625 165.902344 80.949219 165.902344 74.375 Z M 149.46875 74.699219 C 149.46875 65.933594 153.980469 60.96875 161.132813 60.96875 C 168.480469 60.96875 172.027344 65.867188 172.027344 74.3125 C 172.027344 83.207031 168.160156 88.234375 160.617188 88.234375 C 153.011719 88.234375 149.46875 83.269531 149.46875 74.699219 "/>
<path style=" stroke:none;fill-rule:nonzero;fill:rgb(0.799561%,1.199341%,1.199341%);fill-opacity:1;" d="M 191.425781 61.421875 L 197.164063 61.421875 L 197.164063 78.308594 C 197.164063 84.558594 193.8125 88.167969 186.65625 88.167969 C 179.050781 88.167969 176.472656 84.367188 176.472656 78.050781 L 176.472656 61.355469 L 182.210938 61.355469 L 182.210938 76.566406 C 182.210938 81.144531 183.113281 83.59375 186.851563 83.59375 C 190.589844 83.59375 191.425781 81.335938 191.425781 76.632813 L 191.425781 61.421875 "/>
<path style=" stroke:none;fill-rule:nonzero;fill:rgb(0.799561%,1.199341%,1.199341%);fill-opacity:1;" d="M 217.917969 87.78125 L 208.828125 70.121094 L 208.828125 87.71875 L 203.414063 87.71875 L 203.414063 61.355469 L 210.246094 61.355469 L 219.011719 79.210938 L 219.011719 61.355469 L 224.425781 61.355469 L 224.425781 87.71875 L 217.917969 87.71875 L 217.917969 87.78125 "/>
<path style=" stroke:none;fill-rule:nonzero;fill:rgb(0.799561%,1.199341%,1.199341%);fill-opacity:1;" d="M 238.027344 83.011719 C 242.667969 83.011719 245.117188 80.886719 245.117188 74.375 C 245.117188 68.1875 242.859375 66.0625 238.027344 66.0625 L 236.609375 66.0625 L 236.609375 83.011719 Z M 230.808594 87.78125 L 230.808594 61.421875 L 237.253906 61.421875 C 247.242188 61.421875 251.046875 65.804688 251.046875 74.054688 C 251.046875 83.207031 247.179688 87.78125 237.125 87.78125 L 230.808594 87.78125 "/>
<path style=" stroke:none;fill-rule:nonzero;fill:rgb(0.799561%,1.199341%,1.199341%);fill-opacity:1;" d="M 265.03125 66.769531 L 264.96875 66.769531 L 261.746094 77.277344 L 268.382813 77.277344 Z M 268.769531 61.421875 L 277.664063 87.78125 L 271.671875 87.78125 L 269.671875 81.722656 L 260.585938 81.722656 L 258.652344 87.78125 L 252.851563 87.78125 L 261.550781 61.421875 L 268.769531 61.421875 "/>
<path style=" stroke:none;fill-rule:nonzero;fill:rgb(0.799561%,1.199341%,1.199341%);fill-opacity:1;" d="M 284.628906 66.125 L 277.664063 66.125 L 277.664063 61.421875 L 297.453125 61.421875 L 297.453125 66.125 L 290.492188 66.125 L 290.492188 87.78125 L 284.628906 87.78125 L 284.628906 66.125 "/>
<path style=" stroke:none;fill-rule:nonzero;fill:rgb(0.799561%,1.199341%,1.199341%);fill-opacity:1;" d="M 310.34375 84.042969 L 312.984375 84.042969 L 312.984375 87.78125 L 301.898438 87.78125 L 301.898438 84.042969 L 304.542969 84.042969 L 304.542969 65.160156 L 301.898438 65.160156 L 301.898438 61.421875 L 312.984375 61.421875 L 312.984375 65.160156 L 310.34375 65.160156 L 310.34375 84.042969 "/>
<path style=" stroke:none;fill-rule:nonzero;fill:rgb(0.799561%,1.199341%,1.199341%);fill-opacity:1;" d="M 333.480469 74.375 C 333.480469 68.253906 331.933594 65.609375 328.519531 65.609375 C 325.230469 65.609375 323.105469 68.253906 323.105469 74.503906 C 323.105469 80.757813 324.71875 83.59375 328.324219 83.59375 C 331.804688 83.65625 333.480469 80.949219 333.480469 74.375 Z M 317.046875 74.699219 C 317.046875 65.933594 321.558594 60.96875 328.714844 60.96875 C 336.058594 60.96875 339.605469 65.867188 339.605469 74.3125 C 339.605469 83.207031 335.738281 88.234375 328.195313 88.234375 C 320.59375 88.234375 317.046875 83.269531 317.046875 74.699219 "/>
<path style=" stroke:none;fill-rule:nonzero;fill:rgb(0.799561%,1.199341%,1.199341%);fill-opacity:1;" d="M 358.554688 87.78125 L 349.402344 70.121094 L 349.402344 87.71875 L 343.988281 87.71875 L 343.988281 61.355469 L 350.820313 61.355469 L 359.585938 79.210938 L 359.585938 61.355469 L 365 61.355469 L 365 87.71875 L 358.554688 87.71875 L 358.554688 87.78125 "/>
</g>
</svg>
