<svg width="953" height="220" viewBox="0 0 953 220" xmlns="http://www.w3.org/2000/svg" xmlns:xlink="http://www.w3.org/1999/xlink">
    <path id="Path" fill="#000000" stroke="none" d="M 112.737 168.371002 L 0 168.371002 L 0 174.151993 L 112.737 174.151993 L 112.737 168.371002 Z"/>
    <path id="path1" fill="#000000" stroke="none" d="M 108.512001 157.252991 L 4.44702 157.252991 L 4.44702 165.257996 L 108.512001 165.257996 L 108.512001 157.252991 Z"/>
    <path id="path2" fill="#000000" stroke="none" d="M 107.289001 66.084793 L 3.78006 66.084793 L 3.78006 77.202896 L 107.289001 77.202896 L 107.289001 66.084793 Z"/>
    <path id="path3" fill="#000000" stroke="none" d="M 55.534401 46.628052 L 1.33417 59.302704 L 4.44702 62.749298 L 55.534401 62.749298 L 106.622002 62.749298 L 109.735001 59.302704 L 55.534401 46.628052 Z"/>
    <path id="path4" fill="#000000" stroke="none" d="M 18.7099 112.399399 C 18.6206 106.939201 18.4792 101.478699 18.265301 96.022202 C 18.063999 90.881104 17.732599 85.744995 17.4825 80.605499 C 17.460899 80.161697 17.2729 80.065903 16.9048 79.985397 C 15.3885 79.654907 13.8641 79.499603 12.3334 79.497208 C 10.8027 79.499603 9.27834 79.654907 7.76199 79.985397 C 7.3939 80.065598 7.20585 80.161697 7.18428 80.605499 C 6.93417 85.744995 6.60283 90.881104 6.40147 96.022202 C 6.18759 101.478699 6.04589 106.939201 5.95692 112.399399 C 5.8938 116.268997 5.93295 120.141502 5.99421 124.0121 C 6.06187 128.305908 6.15722 132.600891 6.33115 136.89151 C 6.5176 141.496201 6.80579 146.097 7.05856 150.699005 C 7.10703 151.580994 7.19733 152.459991 7.26631 153.317001 C 8.96537 153.76001 10.6501 154.014999 12.3337 154.036011 C 14.0173 154.014999 15.7017 153.76001 17.400999 153.317001 C 17.469999 152.459991 17.559999 151.580994 17.6085 150.699005 C 17.8613 146.097 18.1495 141.496201 18.335899 136.89151 C 18.5098 132.600891 18.6052 128.305908 18.6728 124.0121 C 18.733801 120.141502 18.7733 116.268997 18.7099 112.399399 Z"/>
    <path id="path5" fill="#000000" stroke="none" d="M 46.892899 112.399399 C 46.803699 106.939201 46.661999 101.478699 46.448101 96.022202 C 46.246498 90.881104 45.9151 85.744995 45.665298 80.605499 C 45.6437 80.161697 45.455898 80.065903 45.087601 79.985397 C 43.571499 79.654907 42.046902 79.499603 40.516399 79.497208 C 38.985699 79.499603 37.461399 79.654907 35.945 79.985397 C 35.5769 80.065598 35.388901 80.161697 35.367298 80.605499 C 35.1175 85.744995 34.785801 90.881104 34.584499 96.022202 C 34.370602 101.478699 34.228901 106.939201 34.139999 112.399399 C 34.076801 116.268997 34.116001 120.141502 34.176998 124.0121 C 34.2449 128.305908 34.34 132.600891 34.513901 136.89151 C 34.7006 141.496201 34.988499 146.097 35.241299 150.699005 C 35.289799 151.580994 35.3801 152.459991 35.448799 153.317001 C 37.148102 153.76001 38.832802 154.014999 40.516201 154.036011 C 42.199799 154.014999 43.884201 153.76001 45.5835 153.317001 C 45.652199 152.459991 45.7425 151.580994 45.791 150.699005 C 46.043499 146.097 46.331699 141.496201 46.518101 136.89151 C 46.692101 132.600891 46.787399 128.305908 46.855301 124.0121 C 46.916901 120.141502 46.956001 116.268997 46.892899 112.399399 Z"/>
    <path id="path6" fill="#000000" stroke="none" d="M 79.5783 112.399399 C 79.489098 106.939201 79.347702 101.478699 79.133499 96.022202 C 78.932198 90.881104 78.6008 85.744995 78.350998 80.605499 C 78.329102 80.161697 78.141403 80.065903 77.773003 79.985397 C 76.256897 79.654907 74.732597 79.499603 73.201897 79.497208 C 71.671097 79.499603 70.146797 79.654907 68.630501 79.985397 C 68.262398 80.065598 68.074303 80.161697 68.052696 80.605499 C 67.802902 85.744995 67.471298 90.881104 67.270203 96.022202 C 67.056099 101.478699 66.914597 106.939201 66.825401 112.399399 C 66.762299 116.268997 66.801399 120.141502 66.862701 124.0121 C 66.930603 128.305908 67.025703 132.600891 67.1996 136.89151 C 67.386299 141.496201 67.674301 146.097 67.927002 150.699005 C 67.9758 151.580994 68.065804 152.459991 68.134499 153.317001 C 69.833801 153.76001 71.518303 154.014999 73.201897 154.036011 C 74.885498 154.014999 76.569901 153.76001 78.269203 153.317001 C 78.337898 152.459991 78.4282 151.580994 78.4767 150.699005 C 78.7295 146.097 79.017403 141.496201 79.204102 136.89151 C 79.3778 132.600891 79.473099 128.305908 79.541 124.0121 C 79.602303 120.141502 79.641403 116.268997 79.5783 112.399399 Z"/>
    <path id="path7" fill="#000000" stroke="none" d="M 107.094002 112.399399 C 107.004997 106.939201 106.862999 101.478699 106.649002 96.022202 C 106.447998 90.881104 106.115997 85.744995 105.865997 80.605499 C 105.845001 80.161697 105.656998 80.065903 105.288002 79.985397 C 103.773003 79.654907 102.248001 79.499603 100.717003 79.497208 C 99.186897 79.499603 97.6623 79.654907 96.146202 79.985397 C 95.777802 80.065598 95.590103 80.161697 95.568497 80.605499 C 95.318398 85.744995 94.986801 90.881104 94.785698 96.022202 C 94.5718 101.478699 94.430099 106.939201 94.340897 112.399399 C 94.277702 116.268997 94.316902 120.141502 94.378197 124.0121 C 94.446098 128.305908 94.541199 132.600891 94.715401 136.89151 C 94.901802 141.496201 95.190002 146.097 95.442497 150.699005 C 95.491203 151.580994 95.581299 152.459991 95.650002 153.317001 C 97.349602 153.76001 99.033997 154.014999 100.717003 154.036011 C 102.401001 154.014999 104.085999 153.76001 105.785004 153.317001 C 105.853996 152.459991 105.944 151.580994 105.991997 150.699005 C 106.245003 146.097 106.532997 141.496201 106.720001 136.89151 C 106.893997 132.600891 106.988998 128.305908 107.056999 124.0121 C 107.117996 120.141502 107.156998 116.268997 107.094002 112.399399 Z"/>
    <path id="path8" fill="#000000" stroke="none" d="M 632.987976 163.069 L 626.405029 144.813004 L 604.023987 144.813004 L 597.440979 163.069 L 592 163.069 L 609.466003 115.235001 C 609.817017 114.357002 610.958008 110.846001 610.958008 110.056999 C 610.958008 106.369995 606.919983 106.369995 604.200012 105.931999 L 604.200012 104 L 620.700012 104 L 642.116028 163.067993 L 632.987976 163.067993 L 632.987976 163.069 Z M 614.906982 115.058998 L 605.515991 140.688004 L 624.913025 140.688004 L 614.906982 115.058998 Z"/>
    <path id="path9" fill="#000000" stroke="none" d="M 688.085022 163.069 L 672.549988 135.77301 L 667.109009 135.77301 L 667.109009 163.069 L 657.453979 163.069 L 657.453979 115.935997 C 657.453979 107.509995 657.453979 107.160004 649.116028 105.931 L 649.116028 104 L 671.672974 104 C 682.29303 104 695.458008 106.281998 695.458008 119.709999 C 695.458008 128.574997 690.367981 132.876007 682.028992 134.192001 L 698.179016 163.067993 L 688.085022 163.067993 L 688.085022 163.069 Z M 672.989014 108.125 C 666.669983 108.125 667.109009 110.495003 667.109009 116.024002 L 667.109009 131.647003 L 672.111023 131.647003 C 679.747009 131.647003 685.802979 128.837997 685.802979 120.237 C 685.802979 111.547997 681.327026 108.125 672.989014 108.125 Z"/>
    <path id="path10" fill="#000000" stroke="none" d="M 731.070984 164.209991 C 710.883972 164.209991 705.179016 151.132996 705.179016 132.963989 C 705.179016 116.025002 710.796021 104 729.666992 104 C 735.63501 104 741.603027 104.790001 747.221008 106.632996 L 747.747009 121.291 L 745.202026 121.291 C 745.026001 119.447998 744.323975 117.516998 743.359009 115.936996 C 740.637024 111.196999 736.072998 108.212997 730.544006 108.212997 C 717.291016 108.212997 715.536011 122.782997 715.536011 132.963989 C 715.536011 143.847 718.870972 159.294998 732.562988 159.294998 C 738.356018 159.294998 743.184021 158.153992 747.922974 154.817993 L 747.922974 160.873993 C 742.393005 163.333008 737.125977 164.209991 731.070984 164.209991 Z"/>
    <path id="path11" fill="#000000" stroke="none" d="M 797.226013 163.033997 L 797.226013 134.333008 L 773.354004 134.333008 L 773.354004 163.033997 L 763.698975 163.033997 L 763.698975 115.551003 C 763.698975 107.915001 762.294983 107.738998 754.922974 106.949997 L 754.922974 105.018997 L 773.354004 103 L 773.354004 130.208008 L 797.226013 130.208008 L 797.226013 103.964996 L 806.880981 103.964996 L 806.880981 163.03299 L 797.226013 163.03299 L 797.226013 163.033997 Z"/>
    <path id="path12" fill="#000000" stroke="none" d="M 813.880981 163.45401 L 813.880981 161.26001 C 820.463989 161.26001 821.34198 159.505005 821.34198 153.097 L 821.34198 115.357002 C 821.34198 108.949997 820.463989 107.194 813.880981 107.194 L 813.880981 105 L 838.455994 105 L 838.455994 107.194 C 831.874023 107.194 830.995972 109.037003 830.995972 115.357002 L 830.995972 153.097 C 830.995972 159.416992 831.874023 161.26001 838.455994 161.26001 L 838.455994 163.45401 L 813.880981 163.45401 L 813.880981 163.45401 Z"/>
    <path id="path13" fill="#000000" stroke="none" d="M 880.914001 163.069 L 873.278015 163.069 L 856.075012 115.235001 C 853.442017 107.862 853.004028 107.335999 845.455994 105.931 L 845.455994 104 L 862.481995 104 L 879.684998 152.097 L 879.859985 152.097 L 896.625 104 L 902.330017 104 L 880.914001 163.069 Z"/>
    <path id="path14" fill="#000000" stroke="none" d="M 952.689026 163.069 L 917.669006 163.069 L 917.669006 115.935997 C 917.669006 107.509995 917.580994 107.248001 909.330017 105.931 L 909.330017 104 L 951.372009 104 L 951.635986 116.989998 L 949.177979 116.989998 C 949.177979 110.406998 945.93103 108.125 939.698975 108.125 L 932.85199 108.125 C 928.815002 108.125 927.322998 108.212997 927.322998 112.689003 L 927.322998 130.154999 L 937.942993 130.154999 C 942.945984 130.154999 944.349976 127.873001 945.140015 123.397003 L 947.596985 123.397003 L 947.596985 141.82901 L 945.140015 141.82901 C 945.140015 136.912994 943.033997 134.281006 937.942993 134.281006 L 927.322998 134.281006 L 927.322998 153.852997 C 927.322998 158.681 928.377014 158.944 932.85199 158.944 L 942.594971 158.944 C 948.562988 158.944 950.054993 155.959991 950.492981 150.34201 L 952.950989 150.34201 L 952.689026 163.069 Z"/>
    <path id="path15" fill="#000000" stroke="none" d="M 150 162.45401 L 150 160.26001 C 156.582001 160.26001 157.460007 158.505005 157.460007 152.097 L 157.460007 114.357002 C 157.460007 107.949997 156.582001 106.195 150 106.195 L 150 104 L 174.574997 104 L 174.574997 106.194 C 167.992004 106.194 167.113998 108.037003 167.113998 114.356003 L 167.113998 152.097 C 167.113998 158.416 167.992004 160.26001 174.574997 160.26001 L 174.574997 162.45401 L 150 162.45401 Z"/>
    <path id="path16" fill="#000000" stroke="none" d="M 225.020004 162.067993 L 196.056 112.126999 L 195.880005 112.126999 L 195.880005 162.067993 L 190.350998 162.067993 L 190.350998 114.234001 C 190.350998 105.984001 189.035004 106.334999 181.574997 104.93 L 181.574997 103 L 200.093994 103 L 227.742004 150.746002 L 227.917007 150.746002 L 227.917007 103 L 233.445999 103 L 233.445999 162.067993 L 225.020004 162.067993 Z"/>
    <path id="path17" fill="#000000" stroke="none" d="M 283.628998 115.988998 C 283.628998 109.143005 280.644989 107.125 274.062012 107.125 L 268.093994 107.125 L 268.093994 162.067993 L 258.438995 162.067993 L 258.438995 107.125 L 252.382996 107.125 C 245.712997 107.125 243.431 109.056 242.904007 115.725998 L 240.445999 115.725998 L 240.796997 103 L 285.734985 103 L 286.085999 115.988998 L 283.628998 115.988998 Z"/>
    <path id="path18" fill="#000000" stroke="none" d="M 336.445007 162.067993 L 301.424011 162.067993 L 301.424011 114.935997 C 301.424011 106.509995 301.337006 106.248001 293.085999 104.931 L 293.085999 103 L 335.127991 103 L 335.390991 115.988998 L 332.93399 115.988998 C 332.93399 109.405998 329.686005 107.125 323.454987 107.125 L 316.609009 107.125 C 312.571991 107.125 311.079987 107.212997 311.079987 111.689003 L 311.079987 129.154999 L 321.700012 129.154999 C 326.701996 129.154999 328.105988 126.873001 328.897003 122.397003 L 331.354004 122.397003 L 331.354004 140.82901 L 328.897003 140.82901 C 328.897003 135.914001 326.790985 133.281006 321.700012 133.281006 L 311.079987 133.281006 L 311.079987 152.852997 C 311.079987 157.681 312.132996 157.944 316.609009 157.944 L 326.351013 157.944 C 332.320007 157.944 333.811005 154.959991 334.25 149.34201 L 336.707001 149.34201 L 336.445007 162.067993 Z"/>
    <path id="path19" fill="#000000" stroke="none" d="M 382.675995 162.067993 L 367.140991 134.772003 L 361.699005 134.772003 L 361.699005 162.067993 L 352.045013 162.067993 L 352.045013 114.935997 C 352.045013 106.509995 352.045013 106.160004 343.707001 104.931 L 343.707001 103 L 366.263 103 C 376.882996 103 390.049011 105.281998 390.049011 118.709999 C 390.049011 127.573997 384.958008 131.876007 376.619995 133.19101 L 392.769012 162.067001 L 382.675995 162.067001 L 382.675995 162.067993 Z M 367.579987 107.125 C 361.26001 107.125 361.699005 109.494995 361.699005 115.024002 L 361.699005 130.647003 L 366.701996 130.647003 C 374.338013 130.647003 380.394012 127.837997 380.394012 119.237 C 380.394012 110.547997 375.917999 107.125 367.579987 107.125 Z"/>
    <path id="path20" fill="#000000" stroke="none" d="M 443.214996 162.067993 L 414.251007 112.126999 L 414.075012 112.126999 L 414.075012 162.067993 L 408.54599 162.067993 L 408.54599 114.234001 C 408.54599 105.984001 407.230011 106.334999 399.769012 104.93 L 399.769012 103 L 418.287994 103 L 445.934998 150.746002 L 446.109985 150.746002 L 446.109985 103 L 451.640015 103 L 451.640015 162.067993 L 443.214996 162.067993 Z"/>
    <path id="path21" fill="#000000" stroke="none" d="M 501.997986 162.067993 L 466.97699 162.067993 L 466.97699 114.935997 C 466.97699 106.509995 466.890015 106.248001 458.640015 104.931 L 458.640015 103 L 500.681 103 L 500.944 115.988998 L 498.485992 115.988998 C 498.485992 109.405998 495.239014 107.125 489.006989 107.125 L 482.161011 107.125 C 478.123993 107.125 476.631989 107.212997 476.631989 111.689003 L 476.631989 129.154999 L 487.252014 129.154999 C 492.255005 129.154999 493.658997 126.873001 494.449005 122.397003 L 496.907013 122.397003 L 496.907013 140.82901 L 494.449005 140.82901 C 494.449005 135.914001 492.342987 133.281006 487.252014 133.281006 L 476.631989 133.281006 L 476.631989 152.852997 C 476.631989 157.681 477.684998 157.944 482.161011 157.944 L 491.903992 157.944 C 497.872009 157.944 499.364014 154.959991 499.803009 149.34201 L 502.260986 149.34201 L 501.997986 162.067993 Z"/>
    <path id="path22" fill="#000000" stroke="none" d="M 552.44397 115.988998 C 552.44397 109.143005 549.460022 107.125 542.877014 107.125 L 536.90802 107.125 L 536.90802 162.067993 L 527.254028 162.067993 L 527.254028 107.125 L 521.197998 107.125 C 514.526978 107.125 512.244995 109.056 511.718994 115.725998 L 509.260986 115.725998 L 509.613007 103 L 554.551025 103 L 554.901978 115.988998 L 552.44397 115.988998 Z"/>
</svg>
