<svg width="953" height="200" viewBox="0 0 953 200" xmlns="http://www.w3.org/2000/svg" xmlns:xlink="http://www.w3.org/1999/xlink">
    <path id="Path" fill="#000000" stroke="none" d="M 112.737 158.371002 L 0 158.371002 L 0 164.151993 L 112.737 164.151993 L 112.737 158.371002 Z"/>
    <path id="path1" fill="#000000" stroke="none" d="M 108.512001 147.252991 L 4.44702 147.252991 L 4.44702 155.257996 L 108.512001 155.257996 L 108.512001 147.252991 Z"/>
    <path id="path2" fill="#000000" stroke="none" d="M 107.289001 56.084793 L 3.78006 56.084793 L 3.78006 67.202896 L 107.289001 67.202896 L 107.289001 56.084793 Z"/>
    <path id="path3" fill="#000000" stroke="none" d="M 55.534401 36.628052 L 1.33417 49.302704 L 4.44702 52.749298 L 55.534401 52.749298 L 106.622002 52.749298 L 109.735001 49.302704 L 55.534401 36.628052 Z"/>
    <path id="path4" fill="#000000" stroke="none" d="M 18.7099 102.399399 C 18.6206 96.939201 18.4792 91.478699 18.265301 86.022202 C 18.063999 80.881104 17.732599 75.744995 17.4825 70.605499 C 17.460899 70.161697 17.2729 70.065903 16.9048 69.985397 C 15.3885 69.654907 13.8641 69.499603 12.3334 69.497208 C 10.8027 69.499603 9.27834 69.654907 7.76199 69.985397 C 7.3939 70.065598 7.20585 70.161697 7.18428 70.605499 C 6.93417 75.744995 6.60283 80.881104 6.40147 86.022202 C 6.18759 91.478699 6.04589 96.939201 5.95692 102.399399 C 5.8938 106.268997 5.93295 110.141502 5.99421 114.0121 C 6.06187 118.305901 6.15722 122.600899 6.33115 126.891502 C 6.5176 131.496201 6.80579 136.097 7.05856 140.699005 C 7.10703 141.580994 7.19733 142.459991 7.26631 143.317001 C 8.96537 143.76001 10.6501 144.014999 12.3337 144.036011 C 14.0173 144.014999 15.7017 143.76001 17.400999 143.317001 C 17.469999 142.459991 17.559999 141.580994 17.6085 140.699005 C 17.8613 136.097 18.1495 131.496201 18.335899 126.891502 C 18.5098 122.600899 18.6052 118.305901 18.6728 114.0121 C 18.733801 110.141502 18.7733 106.268997 18.7099 102.399399 Z"/>
    <path id="path5" fill="#000000" stroke="none" d="M 46.892899 102.399399 C 46.803699 96.939201 46.661999 91.478699 46.448101 86.022202 C 46.246498 80.881104 45.9151 75.744995 45.665298 70.605499 C 45.6437 70.161697 45.455898 70.065903 45.087601 69.985397 C 43.571499 69.654907 42.046902 69.499603 40.516399 69.497208 C 38.985699 69.499603 37.461399 69.654907 35.945 69.985397 C 35.5769 70.065598 35.388901 70.161697 35.367298 70.605499 C 35.1175 75.744995 34.785801 80.881104 34.584499 86.022202 C 34.370602 91.478699 34.228901 96.939201 34.139999 102.399399 C 34.076801 106.268997 34.116001 110.141502 34.176998 114.0121 C 34.2449 118.305901 34.34 122.600899 34.513901 126.891502 C 34.7006 131.496201 34.988499 136.097 35.241299 140.699005 C 35.289799 141.580994 35.3801 142.459991 35.448799 143.317001 C 37.148102 143.76001 38.832802 144.014999 40.516201 144.036011 C 42.199799 144.014999 43.884201 143.76001 45.5835 143.317001 C 45.652199 142.459991 45.7425 141.580994 45.791 140.699005 C 46.043499 136.097 46.331699 131.496201 46.518101 126.891502 C 46.692101 122.600899 46.787399 118.305901 46.855301 114.0121 C 46.916901 110.141502 46.956001 106.268997 46.892899 102.399399 Z"/>
    <path id="path6" fill="#000000" stroke="none" d="M 79.5783 102.399399 C 79.489098 96.939201 79.347702 91.478699 79.133499 86.022202 C 78.932198 80.881104 78.6008 75.744995 78.350998 70.605499 C 78.329102 70.161697 78.141403 70.065903 77.773003 69.985397 C 76.256897 69.654907 74.732597 69.499603 73.201897 69.497208 C 71.671097 69.499603 70.146797 69.654907 68.630501 69.985397 C 68.262398 70.065598 68.074303 70.161697 68.052696 70.605499 C 67.802902 75.744995 67.471298 80.881104 67.270203 86.022202 C 67.056099 91.478699 66.914597 96.939201 66.825401 102.399399 C 66.762299 106.268997 66.801399 110.141502 66.862701 114.0121 C 66.930603 118.305901 67.025703 122.600899 67.1996 126.891502 C 67.386299 131.496201 67.674301 136.097 67.927002 140.699005 C 67.9758 141.580994 68.065804 142.459991 68.134499 143.317001 C 69.833801 143.76001 71.518303 144.014999 73.201897 144.036011 C 74.885498 144.014999 76.569901 143.76001 78.269203 143.317001 C 78.337898 142.459991 78.4282 141.580994 78.4767 140.699005 C 78.7295 136.097 79.017403 131.496201 79.204102 126.891502 C 79.3778 122.600899 79.473099 118.305901 79.541 114.0121 C 79.602303 110.141502 79.641403 106.268997 79.5783 102.399399 Z"/>
    <path id="path7" fill="#000000" stroke="none" d="M 107.094002 102.399399 C 107.004997 96.939201 106.862999 91.478699 106.649002 86.022202 C 106.447998 80.881104 106.115997 75.744995 105.865997 70.605499 C 105.845001 70.161697 105.656998 70.065903 105.288002 69.985397 C 103.773003 69.654907 102.248001 69.499603 100.717003 69.497208 C 99.186897 69.499603 97.6623 69.654907 96.146202 69.985397 C 95.777802 70.065598 95.590103 70.161697 95.568497 70.605499 C 95.318398 75.744995 94.986801 80.881104 94.785698 86.022202 C 94.5718 91.478699 94.430099 96.939201 94.340897 102.399399 C 94.277702 106.268997 94.316902 110.141502 94.378197 114.0121 C 94.446098 118.305901 94.541199 122.600899 94.715401 126.891502 C 94.901802 131.496201 95.190002 136.097 95.442497 140.699005 C 95.491203 141.580994 95.581299 142.459991 95.650002 143.317001 C 97.349602 143.76001 99.033997 144.014999 100.717003 144.036011 C 102.401001 144.014999 104.085999 143.76001 105.785004 143.317001 C 105.853996 142.459991 105.944 141.580994 105.991997 140.699005 C 106.245003 136.097 106.532997 131.496201 106.720001 126.891502 C 106.893997 122.600899 106.988998 118.305901 107.056999 114.0121 C 107.117996 110.141502 107.156998 106.268997 107.094002 102.399399 Z"/>
    <path id="path8" fill="#000000" stroke="none" d="M 632.987976 153.069 L 626.405029 134.813004 L 604.023987 134.813004 L 597.440979 153.069 L 592 153.069 L 609.466003 105.235001 C 609.817017 104.357002 610.958008 100.846001 610.958008 100.056999 C 610.958008 96.369995 606.919983 96.369995 604.200012 95.931999 L 604.200012 94 L 620.700012 94 L 642.116028 153.067993 L 632.987976 153.067993 L 632.987976 153.069 Z M 614.906982 105.058998 L 605.515991 130.688004 L 624.913025 130.688004 L 614.906982 105.058998 Z"/>
    <path id="path9" fill="#000000" stroke="none" d="M 688.085022 153.069 L 672.549988 125.773003 L 667.109009 125.773003 L 667.109009 153.069 L 657.453979 153.069 L 657.453979 105.935997 C 657.453979 97.509995 657.453979 97.160004 649.116028 95.931 L 649.116028 94 L 671.672974 94 C 682.29303 94 695.458008 96.281998 695.458008 109.709999 C 695.458008 118.574997 690.367981 122.875999 682.028992 124.192001 L 698.179016 153.067993 L 688.085022 153.067993 L 688.085022 153.069 Z M 672.989014 98.125 C 666.669983 98.125 667.109009 100.495003 667.109009 106.024002 L 667.109009 121.647003 L 672.111023 121.647003 C 679.747009 121.647003 685.802979 118.837997 685.802979 110.237 C 685.802979 101.547997 681.327026 98.125 672.989014 98.125 Z"/>
    <path id="path10" fill="#000000" stroke="none" d="M 731.070984 154.209991 C 710.883972 154.209991 705.179016 141.132996 705.179016 122.963997 C 705.179016 106.025002 710.796021 94 729.666992 94 C 735.63501 94 741.603027 94.790001 747.221008 96.632996 L 747.747009 111.291 L 745.202026 111.291 C 745.026001 109.447998 744.323975 107.516998 743.359009 105.936996 C 740.637024 101.196999 736.072998 98.212997 730.544006 98.212997 C 717.291016 98.212997 715.536011 112.782997 715.536011 122.963997 C 715.536011 133.847 718.870972 149.294998 732.562988 149.294998 C 738.356018 149.294998 743.184021 148.153992 747.922974 144.817993 L 747.922974 150.873993 C 742.393005 153.333008 737.125977 154.209991 731.070984 154.209991 Z"/>
    <path id="path11" fill="#000000" stroke="none" d="M 797.226013 153.033997 L 797.226013 124.333 L 773.354004 124.333 L 773.354004 153.033997 L 763.698975 153.033997 L 763.698975 105.551003 C 763.698975 97.915001 762.294983 97.738998 754.922974 96.949997 L 754.922974 95.018997 L 773.354004 93 L 773.354004 120.208 L 797.226013 120.208 L 797.226013 93.964996 L 806.880981 93.964996 L 806.880981 153.03299 L 797.226013 153.03299 L 797.226013 153.033997 Z"/>
    <path id="path12" fill="#000000" stroke="none" d="M 813.880981 153.45401 L 813.880981 151.26001 C 820.463989 151.26001 821.34198 149.505005 821.34198 143.097 L 821.34198 105.357002 C 821.34198 98.949997 820.463989 97.194 813.880981 97.194 L 813.880981 95 L 838.455994 95 L 838.455994 97.194 C 831.874023 97.194 830.995972 99.037003 830.995972 105.357002 L 830.995972 143.097 C 830.995972 149.416992 831.874023 151.26001 838.455994 151.26001 L 838.455994 153.45401 L 813.880981 153.45401 L 813.880981 153.45401 Z"/>
    <path id="path13" fill="#000000" stroke="none" d="M 880.914001 153.069 L 873.278015 153.069 L 856.075012 105.235001 C 853.442017 97.862 853.004028 97.335999 845.455994 95.931 L 845.455994 94 L 862.481995 94 L 879.684998 142.097 L 879.859985 142.097 L 896.625 94 L 902.330017 94 L 880.914001 153.069 Z"/>
    <path id="path14" fill="#000000" stroke="none" d="M 952.689026 153.069 L 917.669006 153.069 L 917.669006 105.935997 C 917.669006 97.509995 917.580994 97.248001 909.330017 95.931 L 909.330017 94 L 951.372009 94 L 951.635986 106.989998 L 949.177979 106.989998 C 949.177979 100.406998 945.93103 98.125 939.698975 98.125 L 932.85199 98.125 C 928.815002 98.125 927.322998 98.212997 927.322998 102.689003 L 927.322998 120.154999 L 937.942993 120.154999 C 942.945984 120.154999 944.349976 117.873001 945.140015 113.397003 L 947.596985 113.397003 L 947.596985 131.82901 L 945.140015 131.82901 C 945.140015 126.913002 943.033997 124.280998 937.942993 124.280998 L 927.322998 124.280998 L 927.322998 143.852997 C 927.322998 148.681 928.377014 148.944 932.85199 148.944 L 942.594971 148.944 C 948.562988 148.944 950.054993 145.959991 950.492981 140.34201 L 952.950989 140.34201 L 952.689026 153.069 Z"/>
    <path id="path15" fill="#000000" stroke="none" d="M 150 152.45401 L 150 150.26001 C 156.582001 150.26001 157.460007 148.505005 157.460007 142.097 L 157.460007 104.357002 C 157.460007 97.949997 156.582001 96.195 150 96.195 L 150 94 L 174.574997 94 L 174.574997 96.194 C 167.992004 96.194 167.113998 98.037003 167.113998 104.356003 L 167.113998 142.097 C 167.113998 148.416 167.992004 150.26001 174.574997 150.26001 L 174.574997 152.45401 L 150 152.45401 Z"/>
    <path id="path16" fill="#000000" stroke="none" d="M 225.020004 152.067993 L 196.056 102.126999 L 195.880005 102.126999 L 195.880005 152.067993 L 190.350998 152.067993 L 190.350998 104.234001 C 190.350998 95.984001 189.035004 96.334999 181.574997 94.93 L 181.574997 93 L 200.093994 93 L 227.742004 140.746002 L 227.917007 140.746002 L 227.917007 93 L 233.445999 93 L 233.445999 152.067993 L 225.020004 152.067993 Z"/>
    <path id="path17" fill="#000000" stroke="none" d="M 283.628998 105.988998 C 283.628998 99.143005 280.644989 97.125 274.062012 97.125 L 268.093994 97.125 L 268.093994 152.067993 L 258.438995 152.067993 L 258.438995 97.125 L 252.382996 97.125 C 245.712997 97.125 243.431 99.056 242.904007 105.725998 L 240.445999 105.725998 L 240.796997 93 L 285.734985 93 L 286.085999 105.988998 L 283.628998 105.988998 Z"/>
    <path id="path18" fill="#000000" stroke="none" d="M 336.445007 152.067993 L 301.424011 152.067993 L 301.424011 104.935997 C 301.424011 96.509995 301.337006 96.248001 293.085999 94.931 L 293.085999 93 L 335.127991 93 L 335.390991 105.988998 L 332.93399 105.988998 C 332.93399 99.405998 329.686005 97.125 323.454987 97.125 L 316.609009 97.125 C 312.571991 97.125 311.079987 97.212997 311.079987 101.689003 L 311.079987 119.154999 L 321.700012 119.154999 C 326.701996 119.154999 328.105988 116.873001 328.897003 112.397003 L 331.354004 112.397003 L 331.354004 130.82901 L 328.897003 130.82901 C 328.897003 125.914001 326.790985 123.280998 321.700012 123.280998 L 311.079987 123.280998 L 311.079987 142.852997 C 311.079987 147.681 312.132996 147.944 316.609009 147.944 L 326.351013 147.944 C 332.320007 147.944 333.811005 144.959991 334.25 139.34201 L 336.707001 139.34201 L 336.445007 152.067993 Z"/>
    <path id="path19" fill="#000000" stroke="none" d="M 382.675995 152.067993 L 367.140991 124.772003 L 361.699005 124.772003 L 361.699005 152.067993 L 352.045013 152.067993 L 352.045013 104.935997 C 352.045013 96.509995 352.045013 96.160004 343.707001 94.931 L 343.707001 93 L 366.263 93 C 376.882996 93 390.049011 95.281998 390.049011 108.709999 C 390.049011 117.573997 384.958008 121.875999 376.619995 123.191002 L 392.769012 152.067001 L 382.675995 152.067001 L 382.675995 152.067993 Z M 367.579987 97.125 C 361.26001 97.125 361.699005 99.494995 361.699005 105.024002 L 361.699005 120.647003 L 366.701996 120.647003 C 374.338013 120.647003 380.394012 117.837997 380.394012 109.237 C 380.394012 100.547997 375.917999 97.125 367.579987 97.125 Z"/>
    <path id="path20" fill="#000000" stroke="none" d="M 443.214996 152.067993 L 414.251007 102.126999 L 414.075012 102.126999 L 414.075012 152.067993 L 408.54599 152.067993 L 408.54599 104.234001 C 408.54599 95.984001 407.230011 96.334999 399.769012 94.93 L 399.769012 93 L 418.287994 93 L 445.934998 140.746002 L 446.109985 140.746002 L 446.109985 93 L 451.640015 93 L 451.640015 152.067993 L 443.214996 152.067993 Z"/>
    <path id="path21" fill="#000000" stroke="none" d="M 501.997986 152.067993 L 466.97699 152.067993 L 466.97699 104.935997 C 466.97699 96.509995 466.890015 96.248001 458.640015 94.931 L 458.640015 93 L 500.681 93 L 500.944 105.988998 L 498.485992 105.988998 C 498.485992 99.405998 495.239014 97.125 489.006989 97.125 L 482.161011 97.125 C 478.123993 97.125 476.631989 97.212997 476.631989 101.689003 L 476.631989 119.154999 L 487.252014 119.154999 C 492.255005 119.154999 493.658997 116.873001 494.449005 112.397003 L 496.907013 112.397003 L 496.907013 130.82901 L 494.449005 130.82901 C 494.449005 125.914001 492.342987 123.280998 487.252014 123.280998 L 476.631989 123.280998 L 476.631989 142.852997 C 476.631989 147.681 477.684998 147.944 482.161011 147.944 L 491.903992 147.944 C 497.872009 147.944 499.364014 144.959991 499.803009 139.34201 L 502.260986 139.34201 L 501.997986 152.067993 Z"/>
    <path id="path22" fill="#000000" stroke="none" d="M 552.44397 105.988998 C 552.44397 99.143005 549.460022 97.125 542.877014 97.125 L 536.90802 97.125 L 536.90802 152.067993 L 527.254028 152.067993 L 527.254028 97.125 L 521.197998 97.125 C 514.526978 97.125 512.244995 99.056 511.718994 105.725998 L 509.260986 105.725998 L 509.613007 93 L 554.551025 93 L 554.901978 105.988998 L 552.44397 105.988998 Z"/>
</svg>
