<svg width="360" height="122" viewBox="0 0 360 122" fill="none" xmlns="http://www.w3.org/2000/svg">
<path d="M32.1447 121.428C28.4851 120.222 25.0119 116.809 22.5528 112.002C21.9839 110.89 21.5183 109.899 21.5183 109.799C21.5183 109.517 23.2319 108.574 23.3119 108.812C23.3496 108.925 23.834 109.743 24.3886 110.631C28.553 117.294 34.2529 118.026 36.9534 112.246C37.711 110.625 38.0724 109.129 38.5078 105.82C39.1311 101.08 40.0924 95.2733 40.5232 93.6495C41.7305 89.0988 44.3171 85.5079 50.7934 79.3877C56.4292 74.0621 59.1455 69.9181 59.4632 66.1597C59.5274 65.4028 59.519 64.7834 59.4451 64.7834C59.3712 64.7834 58.76 65.2678 58.0869 65.8601C57.4139 66.4532 55.8414 67.702 54.5933 68.6361C51.3948 71.0303 50.0109 72.264 49.064 73.5671C48.612 74.1888 48.1827 74.6982 48.1102 74.6982C48.037 74.6982 47.6266 73.6448 47.1987 72.3568C46.5845 70.5134 46.4178 69.743 46.414 68.7304C46.4072 67.2123 46.6773 66.6086 48.2219 64.6913C50.2267 62.202 51.256 59.4328 51.2575 56.521C51.2597 53.4213 49.8978 50.7215 45.922 45.9422C44.1503 43.8128 39.0186 38.3438 38.7923 38.3438C38.7183 38.3438 38.6783 39.5625 38.704 41.0519C38.8104 47.24 37.6219 51.9635 34.2499 58.7567C32.0971 63.0939 31.6436 64.139 30.7834 66.7497C29.8772 69.5023 29.592 71.0182 29.4713 73.721L29.3626 76.1409L28.5658 76.9226C28.1274 77.3527 27.7215 77.6575 27.6634 77.5994C27.4083 77.3436 27.182 73.6501 27.2778 71.3012C27.4544 66.9768 28.4753 63.1067 30.9826 57.2552C35.7273 46.1814 36.9587 42.0691 36.7044 38.1409C36.5988 36.5133 36.4516 36.0055 34.8263 31.6419C33.441 27.9212 33.8326 24.2896 35.9838 20.9046C36.5294 20.0467 36.595 19.8309 36.432 19.4363C36.3264 19.1812 35.9061 18.2154 35.4971 17.2896C34.2423 14.4479 33.9314 12.9668 33.9216 9.79236C33.9126 6.84809 34.1321 5.60837 35.0006 3.71142C35.7537 2.06499 37.8468 0.152954 38.8949 0.152954C39.6366 0.152954 39.5249 0.466848 38.5078 1.23423C36.3468 2.86632 35.5733 5.69891 36.3128 9.27851C37.0802 12.9932 38.6074 15.622 43.6674 21.9376C55.6218 36.8574 61.6341 45.6064 66.3485 54.944C69.3471 60.8823 70.5559 63.9865 71.8001 68.944C73.0814 74.0462 73.4911 78.2793 73.1214 82.593C72.317 91.9789 68.5556 98.5262 62.0958 101.783C57.6568 104.022 51.8317 104.399 46.6102 102.786C44.7185 102.202 44.7774 102.332 45.2188 99.7033C45.6564 97.0948 45.9718 96.0769 46.3287 96.1161C46.4676 96.132 47.3662 96.2859 48.3253 96.4587C52.5696 97.2246 57.1505 96.2784 60.6275 93.9181C61.7503 93.1553 63.7981 91.1746 64.7873 89.8956C66.4851 87.6991 67.838 84.7933 68.6325 81.6378C69.2181 79.313 69.4407 74.5661 69.08 72.098C68.8031 70.2041 67.8365 66.9821 66.7484 64.3238C62.9349 55.0096 56.2888 45.0322 41.9221 27.0512C41.2762 26.2439 40.0878 24.6948 39.2797 23.609C38.4723 22.5232 37.7502 21.635 37.6763 21.635C37.4288 21.635 36.5988 23.0536 36.2856 24.0096C36.0638 24.688 36.0004 25.3527 36.0593 26.3736C36.2185 29.121 37.3752 30.8353 43.1732 36.914C46.7113 40.6234 48.7116 43.0364 50.4765 45.7241C53.7558 50.72 54.9397 55.7174 53.8252 59.8584C53.7158 60.2651 53.6615 60.6333 53.7052 60.6771C53.9535 60.9246 57.4886 57.7177 58.5532 56.2788C58.9147 55.7906 59.2776 55.4646 59.3644 55.5514C59.587 55.774 60.7399 60.4364 61.1685 62.8457C61.7638 66.1966 61.9698 68.5931 61.8559 70.8635C61.7344 73.3022 61.3971 74.4997 60.1544 76.9015C58.8882 79.35 57.2086 81.4054 52.3417 86.4624C47.5285 91.4628 45.8307 93.5371 45.2233 95.1609C44.6174 96.7816 43.8923 100.811 43.4712 104.901C42.8533 110.91 42.2632 115.075 41.8188 116.578C41.1548 118.82 39.9829 120.346 38.2822 121.182C37.2024 121.714 36.8606 121.789 35.304 121.836C33.8266 121.88 33.321 121.815 32.1447 121.428V121.428ZM50.5784 113.789C49.1885 113.101 48.1842 111.594 47.1263 108.61C46.755 107.564 46.6736 107.123 46.8214 106.975C47.1384 106.657 47.493 107.065 47.9344 108.255C48.4875 109.748 49.0828 110.724 49.6239 111.028C50.0253 111.253 50.1656 111.254 50.6312 111.032C51.065 110.825 51.1828 110.64 51.228 110.087C51.3359 108.791 52.0482 109.466 52.6209 111.407C53.0239 112.772 52.9975 113.019 52.3787 113.637C51.7396 114.277 51.5887 114.29 50.5784 113.789ZM35.9204 108.854L31.8451 105.521L27.9463 110.289L32.0217 113.622L35.9204 108.854ZM24.5365 30.8496C24.5365 32.8484 26.192 34.5454 28.2315 34.5454C29.1476 34.5454 29.9844 34.2082 30.6303 33.6558L31.1124 33.3117L31.0377 34.5907C30.9427 36.2718 30.3111 37.5561 28.7484 39.244C27.059 41.0685 25.4141 42.2509 20.0499 45.4925C12.721 49.9217 10.2317 51.6647 7.59304 54.2143C4.20133 57.4906 1.83581 61.4611 0.799812 65.6209C-0.615728 71.3012 -0.162242 76.7626 2.2395 83.0518C2.92614 84.8507 2.93897 84.9525 3.04309 88.01C3.31851 96.1342 5.35655 101.724 9.57223 105.917C11.7137 108.047 13.6725 109.061 16.2281 109.377C16.8672 109.456 17.8006 109.488 18.3054 109.446C24.4271 108.929 27.1027 103.864 28.4157 90.3046C28.5862 88.5374 28.8186 86.8291 28.9318 86.5062C29.0714 86.1108 30.2802 84.8793 32.6495 82.7138C36.3792 79.3062 37.1247 78.3366 37.1255 76.9128C37.1255 76.033 36.3754 70.7828 36.2245 70.613C36.1581 70.5383 35.7341 70.9858 35.2836 71.6053C34.5298 72.6405 32.1265 74.9766 28.9831 77.7277C26.9224 79.5311 26.5376 80.4788 25.8389 85.4505C24.621 94.1158 23.0749 98.6839 20.48 101.281C18.0828 103.681 14.1825 104.286 11.116 102.733C7.99975 101.154 5.69233 96.4187 5.41239 91.0395L5.30373 88.9275L6.72078 90.2533C8.60716 92.0151 10.1412 92.7833 11.7816 92.7833C13.3276 92.784 13.8362 92.6331 14.639 91.9284C15.8199 90.8916 16.3775 89.2308 16.3775 86.7416C16.3775 81.7683 13.7087 75.8066 10.7946 74.2794C9.61902 73.6629 8.05257 73.7225 6.92753 74.4228C5.84097 75.0988 4.76876 76.5823 4.21341 78.1865C3.98553 78.8444 3.71766 79.4224 3.61655 79.4715C3.27776 79.6375 2.95708 77.3821 2.95104 74.7895C2.94651 72.885 3.04611 71.735 3.32982 70.3489C4.39072 65.1667 6.44009 61.4724 10.4905 57.4333C13.2303 54.7003 16.0591 52.5475 22.3966 48.3734C27.2959 45.1461 29.389 43.4031 30.5495 41.5914C31.0619 40.7916 31.166 40.7079 31.215 41.0519C31.3901 42.2773 29.9104 46.0727 26.5104 53.124C23.7239 58.9016 22.8516 60.92 21.4496 64.7947C19.6817 69.6827 18.5854 74.044 17.944 78.7373C17.5335 81.7419 17.3879 87.9368 17.6399 91.8823C17.864 95.3955 18.6412 100.899 18.9536 101.212C19.0796 101.338 19.3369 101.195 19.7572 100.765L20.3827 100.128L20.0499 98.1081C18.82 90.6615 19.2863 82.7115 21.4323 74.5548C22.9497 68.7862 24.7704 64.188 29.0925 55.2353C32.9 47.3487 33.5828 44.6821 33.4017 38.3438C33.2508 33.0854 32.5536 30.0159 31.1524 28.4577C30.3865 27.6058 29.5762 27.1606 28.507 27.1606C25.909 27.1606 24.5365 28.8478 24.5365 30.8496V30.8496ZM36.8455 100.557L32.7709 97.2238L28.8714 101.992L32.9467 105.325L36.8455 100.557ZM37.1081 96.8005C34.7773 94.5633 32.454 91.2915 30.7699 87.8734L30.0689 86.4518L30.8815 85.6241C31.3282 85.1691 31.7862 84.7963 31.9002 84.7963C32.0141 84.7963 32.4299 85.2717 32.8253 85.852C33.7096 87.152 36.7685 90.3385 38.4625 91.7246C39.5793 92.6384 39.706 92.8059 39.5951 93.2277C39.5264 93.488 39.2774 94.641 39.0413 95.7887C38.8051 96.9371 38.5697 97.9187 38.5176 97.9701C38.4663 98.0214 37.8317 97.4954 37.1081 96.8005V96.8005ZM61.9351 87.069L57.195 84.7767L54.5458 90.2563L59.2859 92.5478L61.9351 87.069ZM10.7886 80.4131C11.144 80.4222 11.4835 80.5112 11.8042 80.6765C12.4682 81.0198 13.4423 82.4791 13.4401 83.1325C13.4386 83.3906 13.1926 84.0252 12.8945 84.5443C12.472 85.2808 12.1422 85.5924 11.3915 85.9666C10.1148 86.6035 8.58905 86.6246 7.28896 86.0187C5.88247 85.363 5.83418 85.2415 6.45669 83.9241C7.49269 81.7336 9.24929 80.3709 10.7886 80.4131V80.4131ZM46.3959 77.1293L41.6565 74.8378L39.0073 80.3166L43.7466 82.6081L46.3959 77.1293ZM12.266 68.1087C11.6005 67.4137 11.4194 66.5309 11.6178 64.9478C11.7325 64.0401 11.98 63.2758 12.4539 62.3756C13.6649 60.0704 17.4792 56.7187 17.4792 57.9592C17.4792 58.0316 16.7043 58.888 15.7565 59.8622C13.1963 62.494 12.3573 64.4249 13.2695 65.5847C13.9071 66.3951 15.0925 66.1619 15.0925 65.2255C15.0925 64.7064 15.7015 63.9496 15.9806 64.1224C16.2659 64.2982 16.2493 64.9071 15.9324 65.962C15.2261 68.3071 13.4514 69.3461 12.266 68.1087V68.1087ZM37.6861 65.5636C37.219 63.8839 37.3616 63.6538 41.8776 58.7839C43.7338 56.7813 45.4882 54.8233 45.7756 54.4317C46.337 53.6688 46.3627 53.6854 46.6449 54.9893C46.7716 55.5748 46.7407 55.9045 46.5121 56.4078C46.3483 56.7677 44.6853 58.7288 42.817 60.7654C40.9488 62.8011 39.1311 64.8641 38.7779 65.3493C38.424 65.8344 38.0769 66.2366 38.006 66.2419C37.9351 66.2472 37.791 65.9423 37.6861 65.5636V65.5636ZM27.1344 37.1411C27.1344 39.1678 25.4661 40.8361 23.4394 40.8361C21.4119 40.8361 19.7443 39.1678 19.7443 37.1411C19.7443 35.1144 21.4119 33.4461 23.4394 33.4461C25.4661 33.4461 27.1344 35.1144 27.1344 37.1411Z" fill="black"/>
<path fill-rule="evenodd" clip-rule="evenodd" d="M157.873 63.5919V98.8793C157.873 98.8793 158.439 104.318 154.708 108.399C149.526 114.068 140.287 109.292 140.287 109.292L142.254 102.119C142.254 102.119 143.411 102.929 145.031 102.929C147.189 102.929 149.311 100.563 149.311 97.838L149.196 63.5919H157.873ZM235.374 63.6757H257.365V70.8967H243.826V77.6251H255.232V84.5994H243.744V91.0818H258.432V98.1383H235.374V63.6757ZM266.062 63.6757H288.053V70.8967H274.514V77.6251H285.92V84.5994H274.432V91.0818H289.12V98.1383H266.062V63.6757ZM227.087 72.3734L214.615 90.6713H227.415V98.1383H203.045V89.4406L215.764 70.8967H203.537V63.6757H227.087V72.3734ZM93.8405 63.6417H103.561L115.385 97.9723H105.991L104.262 91.8242H92.7804L90.6933 97.9723H81.8047L93.8405 63.6417ZM313.002 63.6749C318.296 63.6749 321.369 68.375 321.369 73.134C321.369 77.8929 318.988 79.3477 318.988 79.3477C318.988 79.3477 317.373 80.6697 316.052 81.582C317.288 81.582 318.417 84.3542 318.417 84.3542L323.75 97.9723L314.877 97.9565C314.877 97.9565 310.755 87.2494 309.708 86.0021C308.82 84.9435 307.389 85.1698 305.369 85.1698V97.9723H296.758V63.6749H313.002ZM175.476 63.6417H185.196L197.02 97.9723H187.626L185.897 91.8242H174.415L172.328 97.9723H163.44L175.476 63.6417ZM338.456 63.6417H348.176L360 97.9723H350.606L348.877 91.8242H337.396L335.308 97.9723H326.419L338.456 63.6417ZM121.483 63.6757H129.935V90.6713H140.93V97.8923H121.401L121.483 63.6757ZM101.8 83.8652L98.5542 73.6886L95.2923 83.8652H101.8ZM183.435 83.8652L180.189 73.6886L176.927 83.8652H183.435ZM346.415 83.8652L343.169 73.6886L339.907 83.8652H346.415ZM309.479 70.9971H305.321V77.7654H309.545C311.126 77.7654 312.611 76.1914 312.611 74.4062C312.611 72.6201 311.032 70.9978 309.479 70.9971Z" fill="black"/>
</svg>
