<svg width="361" height="140" viewBox="0 0 361 140" xmlns="http://www.w3.org/2000/svg" xmlns:xlink="http://www.w3.org/1999/xlink">
    <path id="Path" fill="#000000" stroke="none" d="M 195.052002 85.005997 C 195.052002 96.154503 181.179001 95.4935 181.179001 95.4935 L 167.307007 95.4935 L 167.307007 75.345001 L 181.179001 75.345001 C 195.464005 75.262802 195.052002 85.005997 195.052002 85.005997 Z M 167.306 44.625702 L 177.876007 44.625702 C 188.858002 45.204498 188.445007 53.379196 188.445007 53.379196 C 188.445007 63.535599 176.307007 63.701103 176.307007 63.701103 L 167.306 63.701103 L 167.306 44.625702 Z M 192.492004 67.665802 C 192.492004 67.665802 201.988007 63.618904 201.906006 52.882599 C 201.906006 52.882599 203.350006 35.295799 180.042999 33.148499 L 154.175003 33.148499 L 154.175003 106.8909 L 183.820999 106.8909 C 183.820999 106.8909 208.593002 106.971901 208.593002 86.079102 C 208.595001 86.079102 209.171997 71.875801 192.492004 67.665802 L 192.492004 67.665802 Z M 125.560997 18.69751 L 234.442993 18.69751 L 234.442993 121.304001 L 125.560997 121.304001 L 125.560997 18.69751 Z"/>
    <path id="path1" fill="#000000" stroke="none" d="M 69.491798 85.005997 C 69.491798 96.154503 55.619598 95.4935 55.619598 95.4935 L 41.746201 95.4935 L 41.746201 75.345001 L 55.619598 75.345001 C 69.905098 75.262802 69.491798 85.005997 69.491798 85.005997 Z M 41.746201 44.625702 L 52.315899 44.625702 C 63.298901 45.204498 62.885601 53.379196 62.885601 53.379196 C 62.885601 63.535599 50.7463 63.701103 50.7463 63.701103 L 41.746201 63.701103 L 41.746201 44.625702 Z M 66.932404 67.665802 C 66.932404 67.665802 76.4291 63.618904 76.346901 52.882599 C 76.346901 52.882599 77.790298 35.295799 54.484001 33.148499 L 28.615999 33.148499 L 28.615999 106.8909 L 58.262299 106.8909 C 58.262299 106.8909 83.0364 106.971901 83.0364 86.079102 C 83.035301 86.079102 83.6129 71.875801 66.932404 67.665802 L 66.932404 67.665802 Z M 0 18.69751 L 108.882004 18.69751 L 108.882004 121.304001 L 0 121.304001 L 0 18.69751 Z"/>
    <path id="path2" fill="#000000" stroke="none" d="M 337.789001 38.433899 L 337.789001 52.058395 C 337.789001 52.058395 324.493988 43.883698 309.792999 43.718201 C 309.792999 43.718201 282.378998 43.183395 281.140015 70.000603 C 281.140015 70.000603 280.14801 94.670502 309.463013 96.072304 C 309.463013 96.072304 321.768005 97.558601 338.449005 86.905602 L 338.449005 101.026604 C 338.449005 101.026604 316.071991 114.321198 290.140991 104.081497 C 290.140991 104.081497 268.34201 96.113998 267.515015 70.000603 C 267.515015 70.000603 266.605988 43.141701 295.673004 34.2239 C 295.673004 34.2239 303.436005 31.250099 317.391998 32.571999 C 317.390015 32.5709 325.731995 33.3974 337.789001 38.433899 Z M 251.119995 121.304001 L 360.001007 121.304001 L 360.001007 18.69751 L 251.119995 18.69751 L 251.119995 121.304001 Z"/>
</svg>
