<svg width="280" height="100" viewBox="0 0 280 100" xmlns="http://www.w3.org/2000/svg" xmlns:xlink="http://www.w3.org/1999/xlink">
    <g id="g3178">
        <path id="path17" fill="#000000" fill-rule="evenodd" stroke="none" d="M 88.791183 61.32943 C 86.349968 56.878807 82.186028 55.107407 77.35228 55.107407 C 70.317108 55.107407 64.717102 60.084496 64.717102 68.508827 C 64.717102 77.075615 69.981758 81.90937 77.591171 81.90937 C 82.472702 81.90937 86.63665 79.229256 88.933632 75.160873 L 83.573418 72.432983 C 82.376266 75.305099 80.557961 76.166908 78.260979 76.166908 C 74.288155 76.166908 72.469856 72.864777 72.469856 68.509712 C 72.469856 64.153763 74.001472 60.851627 78.260979 60.851627 C 79.40947 60.851627 81.707336 61.473656 83.046951 64.345764 L 88.791183 61.32943 Z"/>
        <path id="path19" fill="#000000" fill-rule="evenodd" stroke="none" d="M 102.473969 60.850742 C 106.733475 60.850742 108.552658 64.152878 108.552658 68.22126 C 108.552658 72.863892 106.733475 76.166031 102.473969 76.166031 C 98.21447 76.166031 96.396179 72.863892 96.396179 68.508827 C 96.396179 64.153763 98.21447 60.850742 102.473969 60.850742 Z M 102.473969 55.107407 C 94.529205 55.107407 88.930092 59.941154 88.930092 68.508827 C 88.930092 77.075615 94.529205 81.90937 102.473969 81.90937 C 110.418739 81.90937 116.018738 77.075615 116.018738 68.508827 C 116.018738 59.942039 110.418739 55.107407 102.473969 55.107407 Z"/>
        <path id="path21" fill="#000000" fill-rule="evenodd" stroke="none" d="M 117.548584 81.238678 L 125.014671 81.238678 L 125.014671 65.397812 C 125.014671 63.10083 125.972023 61.138309 128.986603 61.138309 C 131.858704 61.138309 132.624084 62.813263 132.624084 65.302254 L 132.624084 81.239555 L 140.090164 81.239555 L 140.090164 65.588928 C 140.090164 63.004383 141.381989 61.138309 143.870987 61.138309 C 146.694412 61.138309 147.699585 62.765484 147.699585 66.355179 L 147.699585 81.238678 L 155.165665 81.238678 L 155.165665 61.808113 C 155.165665 55.969212 149.805435 55.107403 147.316452 55.107403 C 144.348785 55.107403 141.573105 56.016991 139.132782 58.505096 C 137.45694 56.255894 135.304184 55.107403 132.384293 55.107403 C 130.087311 55.107403 126.928513 55.777206 125.013779 58.027294 L 125.013779 55.778091 L 117.547691 55.778091 L 117.547691 81.238678 L 117.548584 81.238678 Z"/>
        <path id="path23" fill="#000000" fill-rule="evenodd" stroke="none" d="M 157.554642 81.238678 L 165.020737 81.238678 L 165.020737 65.397812 C 165.020737 63.10083 165.978104 61.138309 168.992676 61.138309 C 171.864792 61.138309 172.630157 62.813263 172.630157 65.302254 L 172.630157 81.239555 L 180.096237 81.239555 L 180.096237 65.588928 C 180.096237 63.004383 181.388062 61.138309 183.87616 61.138309 C 186.699615 61.138309 187.705643 62.765484 187.705643 66.355179 L 187.705643 81.238678 L 195.171722 81.238678 L 195.171722 61.808113 C 195.171722 55.969212 189.810623 55.107403 187.322525 55.107403 C 184.354843 55.107403 181.580048 56.016991 179.138855 58.505096 C 177.463898 56.255894 175.310257 55.107403 172.390366 55.107403 C 170.093384 55.107403 166.934586 55.777206 165.019852 58.027294 L 165.019852 55.778091 L 157.553772 55.778091 L 157.553772 81.238678 L 157.554642 81.238678 Z"/>
        <path id="path25" fill="#000000" fill-rule="evenodd" stroke="none" d="M 210.242798 60.850742 C 214.501404 60.850742 216.320587 64.152878 216.320587 68.22126 C 216.320587 72.863892 214.501404 76.166031 210.242798 76.166031 C 205.983292 76.166031 204.164124 72.863892 204.164124 68.508827 C 204.164124 64.153763 205.983292 60.850742 210.242798 60.850742 Z M 210.242798 55.107407 C 202.298035 55.107407 196.698029 59.941154 196.698029 68.508827 C 196.698029 77.075615 202.29715 81.90937 210.242798 81.90937 C 218.187561 81.90937 223.787567 77.075615 223.787567 68.508827 C 223.787567 59.942039 218.187561 55.107407 210.242798 55.107407 Z"/>
        <path id="path27" fill="#000000" fill-rule="evenodd" stroke="none" d="M 225.796082 81.238678 L 233.262177 81.238678 L 233.262177 65.397812 C 233.262177 63.10083 234.219543 61.138309 237.234985 61.138309 C 240.106232 61.138309 240.871582 62.813263 240.871582 65.302254 L 240.871582 81.239555 L 248.337662 81.239555 L 248.337662 62.430138 C 248.337662 58.60154 246.661835 55.107403 240.63179 55.107403 C 238.334808 55.107403 235.176025 55.777206 233.261292 58.027294 L 233.261292 55.778091 L 225.795197 55.778091 L 225.795197 81.238678 L 225.796082 81.238678 Z"/>
        <path id="path29" fill="#000000" fill-rule="evenodd" stroke="none" d="M 273.268219 58.793549 C 269.821899 56.496563 265.946381 55.108292 262.021332 55.108292 C 256.851379 55.108292 251.252243 57.597275 251.252243 64.010422 C 251.252243 73.055893 266.327759 69.897102 266.327759 73.869926 C 266.327759 76.167801 263.505188 76.454475 262.259369 76.454475 C 258.861664 76.454475 256.516907 75.067085 254.21904 72.864777 L 249.576401 76.884491 C 253.310333 80.330856 256.468262 81.910248 262.020477 81.910248 C 267.570923 81.910248 273.506256 79.516823 273.506256 72.816994 C 273.506256 63.292835 258.430756 66.882538 258.430756 62.527473 C 258.430756 61.235638 259.770386 60.565834 261.636444 60.565834 C 263.982086 60.565834 267.18869 61.523205 268.671631 63.29372 L 273.268219 58.793549 Z"/>
        <path id="path31" fill="#000000" fill-rule="evenodd" stroke="none" d="M 88.791183 32.037598 C 86.349968 27.586975 82.186028 25.815567 77.35228 25.815567 C 70.317108 25.815567 64.717102 30.792664 64.717102 39.216106 C 64.717102 47.782898 69.981758 52.617531 77.591171 52.617531 C 82.472702 52.617531 86.63665 49.937424 88.933632 45.869038 L 83.573418 43.141151 C 82.376266 46.013264 80.557961 46.874187 78.260979 46.874187 C 74.288155 46.874187 72.469856 43.572056 72.469856 39.216106 C 72.469856 34.861046 74.001472 31.558914 78.260979 31.558914 C 79.40947 31.558914 81.707336 32.180939 83.046951 35.053047 L 88.791183 32.037598 Z"/>
        <path id="path33" fill="#000000" fill-rule="evenodd" stroke="none" d="M 90.612129 51.946842 L 98.078201 51.946842 L 98.078201 37.205807 C 98.078201 34.382355 99.848717 33.616104 104.300232 33.089638 L 105.11338 32.99408 L 105.065613 26.389809 C 102.433281 26.581818 99.705391 27.538307 98.078209 29.069916 L 98.078209 26.485374 L 90.612137 26.485374 L 90.612137 51.946842 Z"/>
        <path id="path35" fill="#000000" fill-rule="evenodd" stroke="none" d="M 130.469559 40.747723 C 130.421783 32.898521 127.262985 25.815567 117.977715 25.815567 C 110.224075 25.815567 105.485886 30.984665 105.485886 39.982357 C 105.485886 47.16087 110.080734 52.617531 117.977715 52.617531 C 123.673279 52.617531 127.740776 50.368328 130.325333 45.582359 L 124.725327 42.662468 C 122.571686 45.7257 121.278961 47.16087 118.503296 47.16087 C 116.110756 47.16087 112.999741 45.629253 112.951965 40.747723 L 130.469559 40.747723 L 130.469559 40.747723 Z M 112.857285 36.153759 C 113.19175 32.802963 115.776299 31.272232 117.929932 31.272232 C 120.08358 31.272232 122.763687 32.420723 123.002586 36.153759 L 112.857285 36.153759 Z"/>
        <path id="path37" fill="#000000" fill-rule="evenodd" stroke="none" d="M 147.596054 41.321968 C 147.596054 45.198349 145.394638 47.16087 142.474731 47.16087 C 140.655548 47.16087 138.980591 46.299061 138.980591 44.289642 C 138.980591 42.23156 140.703339 41.513973 142.570297 40.987507 L 147.596054 39.551453 L 147.596054 41.321968 L 147.596054 41.321968 Z M 154.774567 33.186089 C 154.726807 27.442749 150.371719 25.815567 143.432114 25.815567 C 139.985748 25.815567 133.190369 26.485374 132.950577 33.808113 L 140.129974 33.808113 C 140.513107 31.271347 141.660706 30.410423 144.054138 30.410423 C 146.064438 30.410423 147.596054 31.223564 147.596054 33.138306 L 147.596054 35.244171 L 144.868164 35.627296 C 136.732285 36.775784 131.802094 38.929428 131.802094 45.055893 C 131.802094 49.937424 135.43956 52.617531 140.321091 52.617531 C 143.001205 52.617531 146.734238 51.325703 147.978287 49.315399 L 148.073853 49.315399 C 148.121613 50.177212 148.265854 51.085915 148.552536 51.947727 L 155.444366 51.947727 C 154.822342 50.368328 154.774567 48.406693 154.774567 46.635292 L 154.774567 33.186089 L 154.774567 33.186089 Z"/>
        <path id="path39" fill="#000000" fill-rule="evenodd" stroke="none" d="M 172.332855 26.964058 L 167.881348 26.964058 L 167.881348 19.593544 L 160.415268 19.593544 L 160.415268 26.964058 L 156.778687 26.964058 L 156.778687 31.558022 L 160.415268 31.558022 L 160.415268 44.959446 C 160.415268 48.644707 161.324844 52.616646 167.691116 52.616646 C 169.318283 52.616646 171.519699 52.425526 172.477066 52.329079 L 172.477066 46.442398 C 172.093079 46.490177 171.041031 46.585739 170.227875 46.585739 C 168.88649 46.585739 167.882233 46.059277 167.882233 44.048973 L 167.882233 31.558907 L 172.33374 31.558907 L 172.33374 26.964058 L 172.332855 26.964058 Z"/>
        <path id="path41" fill="#000000" fill-rule="evenodd" stroke="none" d="M 175.143921 26.485374 L 175.143921 51.946842 L 182.609985 51.946842 L 182.609985 26.485374 L 175.143921 26.485374 Z M 182.610886 23.614143 L 182.610886 17.870804 L 175.144806 17.870804 L 175.144806 23.614143 L 182.610886 23.614143 Z"/>
        <path id="polygon43" fill="#000000" fill-rule="evenodd" stroke="none" d="M 192.657959 51.946842 L 192.657959 51.946842 L 200.171829 51.946842 L 208.882843 26.485374 L 200.938065 26.485374 L 196.534332 44.480762 L 196.439667 44.480762 L 192.035049 26.485374 L 184.043396 26.485374 Z"/>
        <path id="path45" fill="#000000" fill-rule="evenodd" stroke="none" d="M 232.993195 40.747723 C 232.945435 32.898521 229.786606 25.815567 220.502228 25.815567 C 212.747711 25.815567 208.011292 30.984665 208.011292 39.982357 C 208.011292 47.16087 212.60437 52.617531 220.502228 52.617531 C 226.1978 52.617531 230.265289 50.368328 232.849854 45.582359 L 227.249847 42.662468 C 225.096191 45.7257 223.803482 47.16087 221.028717 47.16087 C 218.636154 47.16087 215.524277 45.629253 215.477371 40.747723 L 232.993195 40.747723 L 232.993195 40.747723 Z M 215.38092 36.153759 C 215.716278 32.802963 218.299942 31.272232 220.453568 31.272232 C 222.607224 31.272232 225.288223 32.420723 225.527115 36.153759 L 215.38092 36.153759 Z"/>
        <path id="path49" fill="#000000" fill-rule="evenodd" stroke="none" d="M 33.330906 25.387321 C 25.648935 25.387321 18.888941 28.230232 13.664986 33.530281 C 8.287959 38.985172 5.368951 46.052197 5.368951 53.427135 C 5.368951 60.878174 8.210979 67.79213 13.588892 73.170036 C 18.965918 78.547066 25.95685 81.466072 33.330906 81.466072 C 40.704964 81.466072 47.849854 78.547066 53.38084 73.093063 C 58.604794 67.946083 61.369839 61.109112 61.369839 53.427135 C 61.369839 45.822144 58.604794 38.908192 53.30386 33.607262 C 47.926834 28.230232 41.012882 25.387321 33.330906 25.387321 Z M 33.407883 30.458199 C 39.70689 30.458199 45.314854 32.839241 49.693806 37.218193 C 53.9949 41.520168 56.299843 47.205112 56.299843 53.427135 C 56.299843 59.726143 54.071877 65.257126 49.769901 69.483009 C 45.236988 73.938057 39.398972 76.319984 33.406998 76.319984 C 27.338045 76.319984 21.653101 73.938942 17.275032 69.55999 C 12.896077 65.180145 10.438058 59.419113 10.438058 53.427135 C 10.438058 47.358185 12.896077 41.597145 17.275032 37.141212 C 21.577007 32.763145 27.108877 30.458199 33.407883 30.458199 Z"/>
        <path id="path51" fill="#000000" fill-rule="evenodd" stroke="none" d="M 33.045998 48.767696 C 31.462177 45.879658 28.759947 44.730282 25.623276 44.730282 C 21.057625 44.730282 17.423685 47.959862 17.423685 53.427135 C 17.423685 58.986435 20.83996 62.123993 25.779001 62.123993 C 28.947529 62.123993 31.648872 60.384445 33.139786 57.745041 L 29.66069 55.974522 C 28.883821 57.837944 27.704361 58.397148 26.213448 58.397148 C 23.635094 58.397148 22.455633 56.254124 22.455633 53.42802 C 22.455633 50.601921 23.449282 48.458008 26.213448 48.458008 C 26.958462 48.458008 28.449379 48.862373 29.319153 50.724907 L 33.045998 48.767696 Z"/>
        <path id="path53" fill="#000000" fill-rule="evenodd" stroke="none" d="M 49.222202 48.767696 C 47.637497 45.879658 44.936153 44.730282 41.79948 44.730282 C 37.233833 44.730282 33.599007 47.959862 33.599007 53.427135 C 33.599007 58.986435 37.016167 62.123993 41.954323 62.123993 C 45.122849 62.123993 47.824192 60.384445 49.315109 57.745041 L 45.83601 55.974522 C 45.060032 57.837944 43.879684 58.397148 42.388771 58.397148 C 39.811298 58.397148 38.63007 56.254124 38.63007 53.42802 C 38.63007 50.601921 39.624603 48.458008 42.388771 48.458008 C 43.133785 48.458008 44.624702 48.862373 45.495361 50.724907 L 49.222202 48.767696 Z"/>
    </g>
</svg>
